G04 Layer: TopLayer*
G04 EasyEDA v6.4.25, 2021-12-12T20:56:00+02:00*
G04 4092842e100643a18230132d8ada3433,1f0f20c424864fadbde79754da5e519f,10*
G04 Gerber Generator version 0.2*
G04 Scale: 100 percent, Rotated: No, Reflected: No *
G04 Dimensions in millimeters *
G04 leading zeros omitted , absolute positions ,4 integer and 5 decimal *
%FSLAX45Y45*%
%MOMM*%

%ADD10C,0.2540*%
%ADD11C,0.7600*%
%ADD12C,2.3000*%
%ADD13R,2.3000X2.3000*%

%LPD*%
G36*
X-205232Y-3949192D02*
G01*
X-209143Y-3948429D01*
X-212394Y-3946194D01*
X-214629Y-3942943D01*
X-215392Y-3939032D01*
X-215392Y-36068D01*
X-214629Y-32156D01*
X-212394Y-28905D01*
X-209143Y-26670D01*
X-205232Y-25908D01*
X14695932Y-25908D01*
X14699843Y-26670D01*
X14703094Y-28905D01*
X14705330Y-32156D01*
X14706092Y-36068D01*
X14706092Y-3939032D01*
X14705330Y-3942943D01*
X14703094Y-3946194D01*
X14699843Y-3948429D01*
X14695932Y-3949192D01*
G37*

%LPC*%
G36*
X7369302Y-3894074D02*
G01*
X7388098Y-3894074D01*
X7406843Y-3892143D01*
X7425283Y-3888384D01*
X7443266Y-3882745D01*
X7460589Y-3875278D01*
X7477048Y-3866134D01*
X7492492Y-3855415D01*
X7506766Y-3843121D01*
X7519771Y-3829507D01*
X7531252Y-3814572D01*
X7541259Y-3798620D01*
X7549540Y-3781704D01*
X7556093Y-3764026D01*
X7560767Y-3745839D01*
X7563662Y-3727196D01*
X7564577Y-3708400D01*
X7563662Y-3689604D01*
X7560767Y-3670960D01*
X7556093Y-3652774D01*
X7549540Y-3635095D01*
X7541259Y-3618179D01*
X7531252Y-3602228D01*
X7519771Y-3587292D01*
X7506766Y-3573678D01*
X7492492Y-3561384D01*
X7477048Y-3550665D01*
X7460589Y-3541522D01*
X7443266Y-3534054D01*
X7425283Y-3528415D01*
X7406843Y-3524656D01*
X7388098Y-3522726D01*
X7369302Y-3522726D01*
X7350556Y-3524656D01*
X7332116Y-3528415D01*
X7314133Y-3534054D01*
X7296810Y-3541522D01*
X7280351Y-3550665D01*
X7264908Y-3561384D01*
X7250633Y-3573678D01*
X7237628Y-3587292D01*
X7226147Y-3602228D01*
X7216140Y-3618179D01*
X7207859Y-3635095D01*
X7201306Y-3652774D01*
X7196632Y-3670960D01*
X7193737Y-3689604D01*
X7192822Y-3708400D01*
X7193737Y-3727196D01*
X7196632Y-3745839D01*
X7201306Y-3764026D01*
X7207859Y-3781704D01*
X7216140Y-3798620D01*
X7226147Y-3814572D01*
X7237628Y-3829507D01*
X7250633Y-3843121D01*
X7264908Y-3855415D01*
X7280351Y-3866134D01*
X7296810Y-3875278D01*
X7314133Y-3882745D01*
X7332116Y-3888384D01*
X7350556Y-3892143D01*
G37*
G36*
X14487651Y-3894074D02*
G01*
X14506448Y-3894074D01*
X14525193Y-3892143D01*
X14543633Y-3888384D01*
X14561616Y-3882745D01*
X14578939Y-3875278D01*
X14595398Y-3866134D01*
X14610842Y-3855415D01*
X14625116Y-3843121D01*
X14638121Y-3829507D01*
X14649602Y-3814572D01*
X14659610Y-3798620D01*
X14667890Y-3781704D01*
X14674443Y-3764026D01*
X14679117Y-3745839D01*
X14682012Y-3727196D01*
X14682927Y-3708400D01*
X14682012Y-3689604D01*
X14679117Y-3670960D01*
X14674443Y-3652774D01*
X14667890Y-3635095D01*
X14659610Y-3618179D01*
X14649602Y-3602228D01*
X14638121Y-3587292D01*
X14625116Y-3573678D01*
X14610842Y-3561384D01*
X14595398Y-3550665D01*
X14578939Y-3541522D01*
X14561616Y-3534054D01*
X14543633Y-3528415D01*
X14525193Y-3524656D01*
X14506448Y-3522726D01*
X14487651Y-3522726D01*
X14468906Y-3524656D01*
X14450466Y-3528415D01*
X14432483Y-3534054D01*
X14415160Y-3541522D01*
X14398701Y-3550665D01*
X14383257Y-3561384D01*
X14368983Y-3573678D01*
X14355978Y-3587292D01*
X14344497Y-3602228D01*
X14334490Y-3618179D01*
X14326209Y-3635095D01*
X14319656Y-3652774D01*
X14314982Y-3670960D01*
X14312087Y-3689604D01*
X14311172Y-3708400D01*
X14312087Y-3727196D01*
X14314982Y-3745839D01*
X14319656Y-3764026D01*
X14326209Y-3781704D01*
X14334490Y-3798620D01*
X14344497Y-3814572D01*
X14355978Y-3829507D01*
X14368983Y-3843121D01*
X14383257Y-3855415D01*
X14398701Y-3866134D01*
X14415160Y-3875278D01*
X14432483Y-3882745D01*
X14450466Y-3888384D01*
X14468906Y-3892143D01*
G37*
G36*
X3302Y-3894074D02*
G01*
X22098Y-3894074D01*
X40843Y-3892143D01*
X59283Y-3888384D01*
X77266Y-3882745D01*
X94589Y-3875278D01*
X111048Y-3866134D01*
X126492Y-3855415D01*
X140766Y-3843121D01*
X153771Y-3829507D01*
X165252Y-3814572D01*
X175260Y-3798620D01*
X183540Y-3781704D01*
X190093Y-3764026D01*
X194767Y-3745839D01*
X197662Y-3727196D01*
X198577Y-3708400D01*
X197662Y-3689604D01*
X194767Y-3670960D01*
X190093Y-3652774D01*
X183540Y-3635095D01*
X175260Y-3618179D01*
X165252Y-3602228D01*
X153771Y-3587292D01*
X140766Y-3573678D01*
X126492Y-3561384D01*
X111048Y-3550665D01*
X94589Y-3541522D01*
X77266Y-3534054D01*
X59283Y-3528415D01*
X40843Y-3524656D01*
X22098Y-3522726D01*
X3302Y-3522726D01*
X-15443Y-3524656D01*
X-33883Y-3528415D01*
X-51866Y-3534054D01*
X-69189Y-3541522D01*
X-85648Y-3550665D01*
X-101092Y-3561384D01*
X-115366Y-3573678D01*
X-128371Y-3587292D01*
X-139852Y-3602228D01*
X-149860Y-3618179D01*
X-158140Y-3635095D01*
X-164693Y-3652774D01*
X-169367Y-3670960D01*
X-172262Y-3689604D01*
X-173177Y-3708400D01*
X-172262Y-3727196D01*
X-169367Y-3745839D01*
X-164693Y-3764026D01*
X-158140Y-3781704D01*
X-149860Y-3798620D01*
X-139852Y-3814572D01*
X-128371Y-3829507D01*
X-115366Y-3843121D01*
X-101092Y-3855415D01*
X-85648Y-3866134D01*
X-69189Y-3875278D01*
X-51866Y-3882745D01*
X-33883Y-3888384D01*
X-15443Y-3892143D01*
G37*
G36*
X13817955Y-3147517D02*
G01*
X13868552Y-3147517D01*
X13874851Y-3146806D01*
X13880338Y-3144875D01*
X13885214Y-3141827D01*
X13889329Y-3137712D01*
X13892377Y-3132836D01*
X13894307Y-3127349D01*
X13895019Y-3121050D01*
X13895019Y-3070453D01*
X13817955Y-3070453D01*
G37*
G36*
X13639647Y-3147517D02*
G01*
X13690244Y-3147517D01*
X13690244Y-3070453D01*
X13613180Y-3070453D01*
X13613180Y-3121050D01*
X13613892Y-3127349D01*
X13615822Y-3132836D01*
X13618870Y-3137712D01*
X13622985Y-3141827D01*
X13627862Y-3144875D01*
X13633348Y-3146806D01*
G37*
G36*
X685444Y-3132074D02*
G01*
X685444Y-3070453D01*
X623925Y-3070453D01*
X628650Y-3079343D01*
X637743Y-3092653D01*
X648258Y-3104794D01*
X660095Y-3115665D01*
X673150Y-3125114D01*
G37*
G36*
X813155Y-3132074D02*
G01*
X825449Y-3125114D01*
X838504Y-3115665D01*
X850341Y-3104794D01*
X860856Y-3092653D01*
X869950Y-3079343D01*
X874674Y-3070453D01*
X813155Y-3070453D01*
G37*
G36*
X1930044Y-3132074D02*
G01*
X1930044Y-3070453D01*
X1868525Y-3070453D01*
X1873250Y-3079343D01*
X1882343Y-3092653D01*
X1892858Y-3104794D01*
X1904695Y-3115665D01*
X1917750Y-3125114D01*
G37*
G36*
X4978044Y-3132074D02*
G01*
X4978044Y-3070453D01*
X4916525Y-3070453D01*
X4921250Y-3079343D01*
X4930343Y-3092653D01*
X4940858Y-3104794D01*
X4952695Y-3115665D01*
X4965750Y-3125114D01*
G37*
G36*
X9550044Y-3132074D02*
G01*
X9550044Y-3070453D01*
X9488525Y-3070453D01*
X9493250Y-3079343D01*
X9502343Y-3092653D01*
X9512858Y-3104794D01*
X9524695Y-3115665D01*
X9537750Y-3125114D01*
G37*
G36*
X8153755Y-3132074D02*
G01*
X8166049Y-3125114D01*
X8179104Y-3115665D01*
X8190941Y-3104794D01*
X8201456Y-3092653D01*
X8210550Y-3079343D01*
X8215274Y-3070453D01*
X8153755Y-3070453D01*
G37*
G36*
X5105755Y-3132074D02*
G01*
X5118049Y-3125114D01*
X5131104Y-3115665D01*
X5142941Y-3104794D01*
X5153456Y-3092653D01*
X5162550Y-3079343D01*
X5167274Y-3070453D01*
X5105755Y-3070453D01*
G37*
G36*
X3581755Y-3132074D02*
G01*
X3594049Y-3125114D01*
X3607104Y-3115665D01*
X3618941Y-3104794D01*
X3629456Y-3092653D01*
X3638550Y-3079343D01*
X3643274Y-3070453D01*
X3581755Y-3070453D01*
G37*
G36*
X9677755Y-3132074D02*
G01*
X9690049Y-3125114D01*
X9703104Y-3115665D01*
X9714941Y-3104794D01*
X9725456Y-3092653D01*
X9734550Y-3079343D01*
X9739274Y-3070453D01*
X9677755Y-3070453D01*
G37*
G36*
X12598044Y-3132074D02*
G01*
X12598044Y-3070453D01*
X12536525Y-3070453D01*
X12541250Y-3079343D01*
X12550343Y-3092653D01*
X12560858Y-3104794D01*
X12572695Y-3115665D01*
X12585750Y-3125114D01*
G37*
G36*
X12725755Y-3132074D02*
G01*
X12738049Y-3125114D01*
X12751104Y-3115665D01*
X12762941Y-3104794D01*
X12773456Y-3092653D01*
X12782550Y-3079343D01*
X12787274Y-3070453D01*
X12725755Y-3070453D01*
G37*
G36*
X8026044Y-3132074D02*
G01*
X8026044Y-3070453D01*
X7964525Y-3070453D01*
X7969250Y-3079343D01*
X7978343Y-3092653D01*
X7988858Y-3104794D01*
X8000695Y-3115665D01*
X8013750Y-3125114D01*
G37*
G36*
X2057755Y-3132074D02*
G01*
X2070049Y-3125114D01*
X2083104Y-3115665D01*
X2094941Y-3104794D01*
X2105456Y-3092653D01*
X2114550Y-3079343D01*
X2119274Y-3070453D01*
X2057755Y-3070453D01*
G37*
G36*
X6502044Y-3132074D02*
G01*
X6502044Y-3070453D01*
X6440525Y-3070453D01*
X6445250Y-3079343D01*
X6454343Y-3092653D01*
X6464858Y-3104794D01*
X6476695Y-3115665D01*
X6489750Y-3125114D01*
G37*
G36*
X3454044Y-3132074D02*
G01*
X3454044Y-3070453D01*
X3392525Y-3070453D01*
X3397250Y-3079343D01*
X3406343Y-3092653D01*
X3416858Y-3104794D01*
X3428695Y-3115665D01*
X3441750Y-3125114D01*
G37*
G36*
X11074044Y-3132074D02*
G01*
X11074044Y-3070453D01*
X11012525Y-3070453D01*
X11017250Y-3079343D01*
X11026343Y-3092653D01*
X11036858Y-3104794D01*
X11048695Y-3115665D01*
X11061750Y-3125114D01*
G37*
G36*
X6629755Y-3132074D02*
G01*
X6642049Y-3125114D01*
X6655104Y-3115665D01*
X6666941Y-3104794D01*
X6677456Y-3092653D01*
X6686550Y-3079343D01*
X6691274Y-3070453D01*
X6629755Y-3070453D01*
G37*
G36*
X11201755Y-3132074D02*
G01*
X11214049Y-3125114D01*
X11227104Y-3115665D01*
X11238941Y-3104794D01*
X11249456Y-3092653D01*
X11258550Y-3079343D01*
X11263274Y-3070453D01*
X11201755Y-3070453D01*
G37*
G36*
X813155Y-2942742D02*
G01*
X874776Y-2942742D01*
X873912Y-2940862D01*
X865581Y-2927096D01*
X855776Y-2914345D01*
X844550Y-2902813D01*
X832103Y-2892602D01*
X818591Y-2883916D01*
X813155Y-2881274D01*
G37*
G36*
X623824Y-2942742D02*
G01*
X685444Y-2942742D01*
X685444Y-2881274D01*
X680008Y-2883916D01*
X666496Y-2892602D01*
X654050Y-2902813D01*
X642823Y-2914345D01*
X633018Y-2927096D01*
X624687Y-2940862D01*
G37*
G36*
X1868424Y-2942742D02*
G01*
X1930044Y-2942742D01*
X1930044Y-2881223D01*
X1924608Y-2883916D01*
X1911096Y-2892602D01*
X1898650Y-2902813D01*
X1887423Y-2914345D01*
X1877618Y-2927096D01*
X1869287Y-2940862D01*
G37*
G36*
X6629755Y-2942742D02*
G01*
X6691375Y-2942742D01*
X6690512Y-2940862D01*
X6682181Y-2927096D01*
X6672376Y-2914345D01*
X6661150Y-2902813D01*
X6648703Y-2892602D01*
X6635191Y-2883916D01*
X6629755Y-2881223D01*
G37*
G36*
X6440424Y-2942742D02*
G01*
X6502044Y-2942742D01*
X6502044Y-2881223D01*
X6496608Y-2883916D01*
X6483096Y-2892602D01*
X6470650Y-2902813D01*
X6459423Y-2914345D01*
X6449618Y-2927096D01*
X6441287Y-2940862D01*
G37*
G36*
X7964424Y-2942742D02*
G01*
X8026044Y-2942742D01*
X8026044Y-2881223D01*
X8020608Y-2883916D01*
X8007096Y-2892602D01*
X7994650Y-2902813D01*
X7983423Y-2914345D01*
X7973618Y-2927096D01*
X7965287Y-2940862D01*
G37*
G36*
X11012424Y-2942742D02*
G01*
X11074044Y-2942742D01*
X11074044Y-2881223D01*
X11068608Y-2883916D01*
X11055096Y-2892602D01*
X11042650Y-2902813D01*
X11031423Y-2914345D01*
X11021618Y-2927096D01*
X11013287Y-2940862D01*
G37*
G36*
X3392424Y-2942742D02*
G01*
X3454044Y-2942742D01*
X3454044Y-2881223D01*
X3448608Y-2883916D01*
X3435096Y-2892602D01*
X3422650Y-2902813D01*
X3411423Y-2914345D01*
X3401618Y-2927096D01*
X3393287Y-2940862D01*
G37*
G36*
X9677755Y-2942742D02*
G01*
X9739376Y-2942742D01*
X9738512Y-2940862D01*
X9730181Y-2927096D01*
X9720376Y-2914345D01*
X9709150Y-2902813D01*
X9696704Y-2892602D01*
X9683191Y-2883916D01*
X9677755Y-2881223D01*
G37*
G36*
X5105755Y-2942742D02*
G01*
X5167376Y-2942742D01*
X5166512Y-2940862D01*
X5158181Y-2927096D01*
X5148376Y-2914345D01*
X5137150Y-2902813D01*
X5124704Y-2892602D01*
X5111191Y-2883916D01*
X5105755Y-2881223D01*
G37*
G36*
X8153755Y-2942742D02*
G01*
X8215375Y-2942742D01*
X8214512Y-2940862D01*
X8206181Y-2927096D01*
X8196376Y-2914345D01*
X8185150Y-2902813D01*
X8172703Y-2892602D01*
X8159191Y-2883916D01*
X8153755Y-2881223D01*
G37*
G36*
X3581755Y-2942742D02*
G01*
X3643376Y-2942742D01*
X3642512Y-2940862D01*
X3634181Y-2927096D01*
X3624376Y-2914345D01*
X3613150Y-2902813D01*
X3600704Y-2892602D01*
X3587191Y-2883916D01*
X3581755Y-2881223D01*
G37*
G36*
X2057755Y-2942742D02*
G01*
X2119376Y-2942742D01*
X2118512Y-2940862D01*
X2110181Y-2927096D01*
X2100376Y-2914345D01*
X2089150Y-2902813D01*
X2076704Y-2892602D01*
X2063191Y-2883916D01*
X2057755Y-2881223D01*
G37*
G36*
X12725755Y-2942742D02*
G01*
X12787376Y-2942742D01*
X12786512Y-2940862D01*
X12778181Y-2927096D01*
X12768376Y-2914345D01*
X12757150Y-2902813D01*
X12744704Y-2892602D01*
X12731191Y-2883916D01*
X12725755Y-2881223D01*
G37*
G36*
X12536424Y-2942742D02*
G01*
X12598044Y-2942742D01*
X12598044Y-2881223D01*
X12592608Y-2883916D01*
X12579096Y-2892602D01*
X12566650Y-2902813D01*
X12555423Y-2914345D01*
X12545618Y-2927096D01*
X12537287Y-2940862D01*
G37*
G36*
X9488424Y-2942742D02*
G01*
X9550044Y-2942742D01*
X9550044Y-2881223D01*
X9544608Y-2883916D01*
X9531096Y-2892602D01*
X9518650Y-2902813D01*
X9507423Y-2914345D01*
X9497618Y-2927096D01*
X9489287Y-2940862D01*
G37*
G36*
X4916424Y-2942742D02*
G01*
X4978044Y-2942742D01*
X4978044Y-2881223D01*
X4972608Y-2883916D01*
X4959096Y-2892602D01*
X4946650Y-2902813D01*
X4935423Y-2914345D01*
X4925618Y-2927096D01*
X4917287Y-2940862D01*
G37*
G36*
X11201755Y-2942742D02*
G01*
X11263376Y-2942742D01*
X11262512Y-2940862D01*
X11254181Y-2927096D01*
X11244376Y-2914345D01*
X11233150Y-2902813D01*
X11220704Y-2892602D01*
X11207191Y-2883916D01*
X11201755Y-2881223D01*
G37*
G36*
X13817955Y-2942742D02*
G01*
X13895019Y-2942742D01*
X13895019Y-2892196D01*
X13894307Y-2885846D01*
X13892377Y-2880410D01*
X13889329Y-2875483D01*
X13885214Y-2871419D01*
X13880338Y-2868320D01*
X13874851Y-2866390D01*
X13868552Y-2865678D01*
X13817955Y-2865678D01*
G37*
G36*
X13613180Y-2942742D02*
G01*
X13690244Y-2942742D01*
X13690244Y-2865678D01*
X13639647Y-2865678D01*
X13633348Y-2866390D01*
X13627862Y-2868320D01*
X13622985Y-2871419D01*
X13618870Y-2875483D01*
X13615822Y-2880410D01*
X13613892Y-2885846D01*
X13613180Y-2892196D01*
G37*
G36*
X1930044Y-2632100D02*
G01*
X1930044Y-2570429D01*
X1868525Y-2570429D01*
X1873250Y-2579370D01*
X1882343Y-2592628D01*
X1892858Y-2604770D01*
X1904695Y-2615692D01*
X1917750Y-2625140D01*
G37*
G36*
X8153755Y-2632100D02*
G01*
X8166049Y-2625140D01*
X8179104Y-2615692D01*
X8190941Y-2604770D01*
X8201456Y-2592628D01*
X8210550Y-2579370D01*
X8215274Y-2570429D01*
X8153755Y-2570429D01*
G37*
G36*
X4978044Y-2632100D02*
G01*
X4978044Y-2570429D01*
X4916525Y-2570429D01*
X4921250Y-2579370D01*
X4930343Y-2592628D01*
X4940858Y-2604770D01*
X4952695Y-2615692D01*
X4965750Y-2625140D01*
G37*
G36*
X3581755Y-2632100D02*
G01*
X3594049Y-2625140D01*
X3607104Y-2615692D01*
X3618941Y-2604770D01*
X3629456Y-2592628D01*
X3638550Y-2579370D01*
X3643274Y-2570429D01*
X3581755Y-2570429D01*
G37*
G36*
X9550044Y-2632100D02*
G01*
X9550044Y-2570429D01*
X9488525Y-2570429D01*
X9493250Y-2579370D01*
X9502343Y-2592628D01*
X9512858Y-2604770D01*
X9524695Y-2615692D01*
X9537750Y-2625140D01*
G37*
G36*
X8026044Y-2632100D02*
G01*
X8026044Y-2570429D01*
X7964525Y-2570429D01*
X7969250Y-2579370D01*
X7978343Y-2592628D01*
X7988858Y-2604770D01*
X8000695Y-2615692D01*
X8013750Y-2625140D01*
G37*
G36*
X11201755Y-2632100D02*
G01*
X11214049Y-2625140D01*
X11227104Y-2615692D01*
X11238941Y-2604770D01*
X11249456Y-2592628D01*
X11258550Y-2579370D01*
X11263274Y-2570429D01*
X11201755Y-2570429D01*
G37*
G36*
X6502044Y-2632100D02*
G01*
X6502044Y-2570429D01*
X6440525Y-2570429D01*
X6445250Y-2579370D01*
X6454343Y-2592628D01*
X6464858Y-2604770D01*
X6476695Y-2615692D01*
X6489750Y-2625140D01*
G37*
G36*
X12598044Y-2632100D02*
G01*
X12598044Y-2570429D01*
X12536525Y-2570429D01*
X12541250Y-2579370D01*
X12550343Y-2592628D01*
X12560858Y-2604770D01*
X12572695Y-2615692D01*
X12585750Y-2625140D01*
G37*
G36*
X5105755Y-2632100D02*
G01*
X5118049Y-2625140D01*
X5131104Y-2615692D01*
X5142941Y-2604770D01*
X5153456Y-2592628D01*
X5162550Y-2579370D01*
X5167274Y-2570429D01*
X5105755Y-2570429D01*
G37*
G36*
X3454044Y-2632100D02*
G01*
X3454044Y-2570429D01*
X3392525Y-2570429D01*
X3397250Y-2579370D01*
X3406343Y-2592628D01*
X3416858Y-2604770D01*
X3428695Y-2615692D01*
X3441750Y-2625140D01*
G37*
G36*
X9677755Y-2632100D02*
G01*
X9690049Y-2625140D01*
X9703104Y-2615692D01*
X9714941Y-2604770D01*
X9725456Y-2592628D01*
X9734550Y-2579370D01*
X9739274Y-2570429D01*
X9677755Y-2570429D01*
G37*
G36*
X2057755Y-2632100D02*
G01*
X2070049Y-2625140D01*
X2083104Y-2615692D01*
X2094941Y-2604770D01*
X2105456Y-2592628D01*
X2114550Y-2579370D01*
X2119274Y-2570429D01*
X2057755Y-2570429D01*
G37*
G36*
X11074044Y-2632100D02*
G01*
X11074044Y-2570429D01*
X11012525Y-2570429D01*
X11017250Y-2579370D01*
X11026343Y-2592628D01*
X11036858Y-2604770D01*
X11048695Y-2615692D01*
X11061750Y-2625140D01*
G37*
G36*
X12725755Y-2632100D02*
G01*
X12738049Y-2625140D01*
X12751104Y-2615692D01*
X12762941Y-2604770D01*
X12773456Y-2592628D01*
X12782550Y-2579370D01*
X12787274Y-2570429D01*
X12725755Y-2570429D01*
G37*
G36*
X6629755Y-2632100D02*
G01*
X6642049Y-2625140D01*
X6655104Y-2615692D01*
X6666941Y-2604770D01*
X6677456Y-2592628D01*
X6686550Y-2579370D01*
X6691274Y-2570429D01*
X6629755Y-2570429D01*
G37*
G36*
X685444Y-2632049D02*
G01*
X685444Y-2570429D01*
X623925Y-2570429D01*
X628650Y-2579319D01*
X637743Y-2592628D01*
X648258Y-2604770D01*
X660095Y-2615641D01*
X673150Y-2625090D01*
G37*
G36*
X813155Y-2632049D02*
G01*
X825449Y-2625090D01*
X838504Y-2615641D01*
X850341Y-2604770D01*
X860856Y-2592628D01*
X869950Y-2579319D01*
X874674Y-2570429D01*
X813155Y-2570429D01*
G37*
G36*
X13817955Y-2631948D02*
G01*
X13823391Y-2629306D01*
X13836904Y-2620568D01*
X13849350Y-2610408D01*
X13860576Y-2598877D01*
X13870381Y-2586126D01*
X13878712Y-2572359D01*
X13879576Y-2570480D01*
X13817955Y-2570480D01*
G37*
G36*
X13690244Y-2631948D02*
G01*
X13690244Y-2570480D01*
X13628624Y-2570480D01*
X13629487Y-2572359D01*
X13637818Y-2586126D01*
X13647623Y-2598877D01*
X13658850Y-2610408D01*
X13671296Y-2620568D01*
X13684808Y-2629306D01*
G37*
G36*
X1868424Y-2442768D02*
G01*
X1930044Y-2442768D01*
X1930044Y-2381250D01*
X1924608Y-2383942D01*
X1911096Y-2392629D01*
X1898650Y-2402789D01*
X1887423Y-2414320D01*
X1877618Y-2427071D01*
X1869287Y-2440838D01*
G37*
G36*
X7964424Y-2442768D02*
G01*
X8026044Y-2442768D01*
X8026044Y-2381250D01*
X8020608Y-2383942D01*
X8007096Y-2392629D01*
X7994650Y-2402789D01*
X7983423Y-2414320D01*
X7973618Y-2427071D01*
X7965287Y-2440838D01*
G37*
G36*
X3392424Y-2442768D02*
G01*
X3454044Y-2442768D01*
X3454044Y-2381250D01*
X3448608Y-2383942D01*
X3435096Y-2392629D01*
X3422650Y-2402789D01*
X3411423Y-2414320D01*
X3401618Y-2427071D01*
X3393287Y-2440838D01*
G37*
G36*
X6440424Y-2442768D02*
G01*
X6502044Y-2442768D01*
X6502044Y-2381250D01*
X6496608Y-2383942D01*
X6483096Y-2392629D01*
X6470650Y-2402789D01*
X6459423Y-2414320D01*
X6449618Y-2427071D01*
X6441287Y-2440838D01*
G37*
G36*
X6629755Y-2442768D02*
G01*
X6691375Y-2442768D01*
X6690512Y-2440838D01*
X6682181Y-2427071D01*
X6672376Y-2414320D01*
X6661150Y-2402789D01*
X6648703Y-2392629D01*
X6635191Y-2383942D01*
X6629755Y-2381250D01*
G37*
G36*
X11201755Y-2442768D02*
G01*
X11263376Y-2442768D01*
X11262512Y-2440838D01*
X11254181Y-2427071D01*
X11244376Y-2414320D01*
X11233150Y-2402789D01*
X11220704Y-2392629D01*
X11207191Y-2383942D01*
X11201755Y-2381250D01*
G37*
G36*
X2057755Y-2442768D02*
G01*
X2119376Y-2442768D01*
X2118512Y-2440838D01*
X2110181Y-2427071D01*
X2100376Y-2414320D01*
X2089150Y-2402789D01*
X2076704Y-2392629D01*
X2063191Y-2383942D01*
X2057755Y-2381250D01*
G37*
G36*
X5105755Y-2442768D02*
G01*
X5167376Y-2442768D01*
X5166512Y-2440838D01*
X5158181Y-2427071D01*
X5148376Y-2414320D01*
X5137150Y-2402789D01*
X5124704Y-2392629D01*
X5111191Y-2383942D01*
X5105755Y-2381250D01*
G37*
G36*
X8153755Y-2442768D02*
G01*
X8215375Y-2442768D01*
X8214512Y-2440838D01*
X8206181Y-2427071D01*
X8196376Y-2414320D01*
X8185150Y-2402789D01*
X8172703Y-2392629D01*
X8159191Y-2383942D01*
X8153755Y-2381250D01*
G37*
G36*
X11012424Y-2442768D02*
G01*
X11074044Y-2442768D01*
X11074044Y-2381250D01*
X11068608Y-2383942D01*
X11055096Y-2392629D01*
X11042650Y-2402789D01*
X11031423Y-2414320D01*
X11021618Y-2427071D01*
X11013287Y-2440838D01*
G37*
G36*
X12536424Y-2442768D02*
G01*
X12598044Y-2442768D01*
X12598044Y-2381250D01*
X12592608Y-2383942D01*
X12579096Y-2392629D01*
X12566650Y-2402789D01*
X12555423Y-2414320D01*
X12545618Y-2427071D01*
X12537287Y-2440838D01*
G37*
G36*
X9677755Y-2442768D02*
G01*
X9739376Y-2442768D01*
X9738512Y-2440838D01*
X9730181Y-2427071D01*
X9720376Y-2414320D01*
X9709150Y-2402789D01*
X9696704Y-2392629D01*
X9683191Y-2383942D01*
X9677755Y-2381250D01*
G37*
G36*
X4916424Y-2442768D02*
G01*
X4978044Y-2442768D01*
X4978044Y-2381250D01*
X4972608Y-2383942D01*
X4959096Y-2392629D01*
X4946650Y-2402789D01*
X4935423Y-2414320D01*
X4925618Y-2427071D01*
X4917287Y-2440838D01*
G37*
G36*
X9488424Y-2442768D02*
G01*
X9550044Y-2442768D01*
X9550044Y-2381250D01*
X9544608Y-2383942D01*
X9531096Y-2392629D01*
X9518650Y-2402789D01*
X9507423Y-2414320D01*
X9497618Y-2427071D01*
X9489287Y-2440838D01*
G37*
G36*
X3581755Y-2442768D02*
G01*
X3643376Y-2442768D01*
X3642512Y-2440838D01*
X3634181Y-2427071D01*
X3624376Y-2414320D01*
X3613150Y-2402789D01*
X3600704Y-2392629D01*
X3587191Y-2383942D01*
X3581755Y-2381250D01*
G37*
G36*
X12725755Y-2442768D02*
G01*
X12787376Y-2442768D01*
X12786512Y-2440838D01*
X12778181Y-2427071D01*
X12768376Y-2414320D01*
X12757150Y-2402789D01*
X12744704Y-2392629D01*
X12731191Y-2383942D01*
X12725755Y-2381250D01*
G37*
G36*
X13628725Y-2442768D02*
G01*
X13690244Y-2442768D01*
X13690244Y-2381148D01*
X13677950Y-2388108D01*
X13664895Y-2397556D01*
X13653058Y-2408428D01*
X13642543Y-2420569D01*
X13633450Y-2433878D01*
G37*
G36*
X13817955Y-2442768D02*
G01*
X13879474Y-2442768D01*
X13874750Y-2433878D01*
X13865656Y-2420569D01*
X13855141Y-2408428D01*
X13843304Y-2397556D01*
X13830249Y-2388108D01*
X13817955Y-2381148D01*
G37*
G36*
X813155Y-2442718D02*
G01*
X874776Y-2442718D01*
X873912Y-2440838D01*
X865581Y-2427071D01*
X855776Y-2414320D01*
X844550Y-2402789D01*
X832103Y-2392578D01*
X818591Y-2383891D01*
X813155Y-2381250D01*
G37*
G36*
X623824Y-2442718D02*
G01*
X685444Y-2442718D01*
X685444Y-2381250D01*
X680008Y-2383891D01*
X666496Y-2392578D01*
X654050Y-2402789D01*
X642823Y-2414320D01*
X633018Y-2427071D01*
X624687Y-2440838D01*
G37*
G36*
X749300Y-2147468D02*
G01*
X765352Y-2146554D01*
X781202Y-2143810D01*
X796645Y-2139289D01*
X811479Y-2133041D01*
X825449Y-2125116D01*
X838504Y-2115667D01*
X850341Y-2104796D01*
X860856Y-2092655D01*
X869950Y-2079345D01*
X877468Y-2065121D01*
X882700Y-2051659D01*
X884885Y-2048306D01*
X888187Y-2046020D01*
X892149Y-2045207D01*
X1851050Y-2045207D01*
X1855012Y-2046020D01*
X1858314Y-2048306D01*
X1860499Y-2051659D01*
X1865731Y-2065121D01*
X1873250Y-2079345D01*
X1882343Y-2092655D01*
X1892858Y-2104796D01*
X1904695Y-2115667D01*
X1917750Y-2125116D01*
X1931720Y-2133041D01*
X1946554Y-2139289D01*
X1961997Y-2143810D01*
X1977847Y-2146554D01*
X1993900Y-2147468D01*
X2009952Y-2146554D01*
X2025802Y-2143810D01*
X2041245Y-2139289D01*
X2056079Y-2133041D01*
X2070049Y-2125116D01*
X2083104Y-2115667D01*
X2094941Y-2104796D01*
X2105456Y-2092655D01*
X2114550Y-2079345D01*
X2122068Y-2065121D01*
X2127300Y-2051659D01*
X2129485Y-2048306D01*
X2132787Y-2046020D01*
X2136749Y-2045207D01*
X3375050Y-2045207D01*
X3379012Y-2046020D01*
X3382314Y-2048306D01*
X3384499Y-2051659D01*
X3389731Y-2065121D01*
X3397250Y-2079345D01*
X3406343Y-2092655D01*
X3416858Y-2104796D01*
X3428695Y-2115667D01*
X3441750Y-2125116D01*
X3455720Y-2133041D01*
X3470554Y-2139289D01*
X3485997Y-2143810D01*
X3501847Y-2146554D01*
X3517900Y-2147468D01*
X3533952Y-2146554D01*
X3549802Y-2143810D01*
X3565245Y-2139289D01*
X3580079Y-2133041D01*
X3594049Y-2125116D01*
X3607104Y-2115667D01*
X3618941Y-2104796D01*
X3629456Y-2092655D01*
X3638550Y-2079345D01*
X3646068Y-2065121D01*
X3651300Y-2051659D01*
X3653485Y-2048306D01*
X3656787Y-2046020D01*
X3660749Y-2045207D01*
X4899050Y-2045207D01*
X4903012Y-2046020D01*
X4906314Y-2048306D01*
X4908499Y-2051659D01*
X4913731Y-2065121D01*
X4921250Y-2079345D01*
X4930343Y-2092655D01*
X4940858Y-2104796D01*
X4952695Y-2115667D01*
X4965750Y-2125116D01*
X4979720Y-2133041D01*
X4994554Y-2139289D01*
X5009997Y-2143810D01*
X5025847Y-2146554D01*
X5041900Y-2147468D01*
X5057952Y-2146554D01*
X5073802Y-2143810D01*
X5089245Y-2139289D01*
X5104079Y-2133041D01*
X5118049Y-2125116D01*
X5131104Y-2115667D01*
X5142941Y-2104796D01*
X5153456Y-2092655D01*
X5162550Y-2079345D01*
X5170068Y-2065121D01*
X5175300Y-2051659D01*
X5177485Y-2048306D01*
X5180787Y-2046020D01*
X5184749Y-2045207D01*
X6423050Y-2045207D01*
X6427012Y-2046020D01*
X6430314Y-2048306D01*
X6432499Y-2051659D01*
X6437731Y-2065121D01*
X6445250Y-2079345D01*
X6454343Y-2092655D01*
X6464858Y-2104796D01*
X6476695Y-2115667D01*
X6489750Y-2125116D01*
X6503720Y-2133041D01*
X6518554Y-2139289D01*
X6533997Y-2143810D01*
X6549847Y-2146554D01*
X6565900Y-2147468D01*
X6581952Y-2146554D01*
X6597802Y-2143810D01*
X6613245Y-2139289D01*
X6628079Y-2133041D01*
X6642049Y-2125116D01*
X6655104Y-2115667D01*
X6666941Y-2104796D01*
X6677456Y-2092655D01*
X6686550Y-2079345D01*
X6694068Y-2065121D01*
X6699300Y-2051659D01*
X6701485Y-2048306D01*
X6704787Y-2046020D01*
X6708749Y-2045207D01*
X7947050Y-2045207D01*
X7951012Y-2046020D01*
X7954314Y-2048306D01*
X7956499Y-2051659D01*
X7961731Y-2065121D01*
X7969250Y-2079345D01*
X7978343Y-2092655D01*
X7988858Y-2104796D01*
X8000695Y-2115667D01*
X8013750Y-2125116D01*
X8027720Y-2133041D01*
X8042554Y-2139289D01*
X8057997Y-2143810D01*
X8073847Y-2146554D01*
X8089900Y-2147468D01*
X8105952Y-2146554D01*
X8121802Y-2143810D01*
X8137245Y-2139289D01*
X8152079Y-2133041D01*
X8166049Y-2125116D01*
X8179104Y-2115667D01*
X8190941Y-2104796D01*
X8201456Y-2092655D01*
X8210550Y-2079345D01*
X8218068Y-2065121D01*
X8223300Y-2051659D01*
X8225485Y-2048306D01*
X8228787Y-2046020D01*
X8232749Y-2045207D01*
X9471050Y-2045207D01*
X9475012Y-2046020D01*
X9478314Y-2048306D01*
X9480499Y-2051659D01*
X9485731Y-2065121D01*
X9493250Y-2079345D01*
X9502343Y-2092655D01*
X9512858Y-2104796D01*
X9524695Y-2115667D01*
X9537750Y-2125116D01*
X9551720Y-2133041D01*
X9566554Y-2139289D01*
X9581997Y-2143810D01*
X9597847Y-2146554D01*
X9613900Y-2147468D01*
X9629952Y-2146554D01*
X9645802Y-2143810D01*
X9661245Y-2139289D01*
X9676079Y-2133041D01*
X9690049Y-2125116D01*
X9703104Y-2115667D01*
X9714941Y-2104796D01*
X9725456Y-2092655D01*
X9734550Y-2079345D01*
X9742068Y-2065121D01*
X9747300Y-2051659D01*
X9749485Y-2048306D01*
X9752787Y-2046020D01*
X9756749Y-2045207D01*
X10995050Y-2045207D01*
X10999012Y-2046020D01*
X11002314Y-2048306D01*
X11004499Y-2051659D01*
X11009731Y-2065121D01*
X11017250Y-2079345D01*
X11026343Y-2092655D01*
X11036858Y-2104796D01*
X11048695Y-2115667D01*
X11061750Y-2125116D01*
X11075720Y-2133041D01*
X11090554Y-2139289D01*
X11105997Y-2143810D01*
X11121847Y-2146554D01*
X11137900Y-2147468D01*
X11153952Y-2146554D01*
X11169802Y-2143810D01*
X11185245Y-2139289D01*
X11200079Y-2133041D01*
X11214049Y-2125116D01*
X11227104Y-2115667D01*
X11238941Y-2104796D01*
X11249456Y-2092655D01*
X11258550Y-2079345D01*
X11266068Y-2065121D01*
X11271300Y-2051659D01*
X11273485Y-2048306D01*
X11276787Y-2046020D01*
X11280749Y-2045207D01*
X12519050Y-2045207D01*
X12523012Y-2046020D01*
X12526314Y-2048306D01*
X12528499Y-2051659D01*
X12533731Y-2065121D01*
X12541250Y-2079345D01*
X12550343Y-2092655D01*
X12560858Y-2104796D01*
X12572695Y-2115667D01*
X12585750Y-2125116D01*
X12599720Y-2133041D01*
X12614554Y-2139289D01*
X12629997Y-2143810D01*
X12645847Y-2146554D01*
X12661900Y-2147468D01*
X12677952Y-2146554D01*
X12693802Y-2143810D01*
X12709245Y-2139289D01*
X12724079Y-2133041D01*
X12738049Y-2125116D01*
X12751104Y-2115667D01*
X12762941Y-2104796D01*
X12773456Y-2092655D01*
X12782550Y-2079345D01*
X12790068Y-2065121D01*
X12795300Y-2051659D01*
X12797485Y-2048306D01*
X12800787Y-2046020D01*
X12804749Y-2045207D01*
X13611351Y-2045207D01*
X13615517Y-2046071D01*
X13618921Y-2048560D01*
X13621004Y-2052218D01*
X13622832Y-2057704D01*
X13629487Y-2072335D01*
X13637818Y-2086102D01*
X13647623Y-2098852D01*
X13658850Y-2110384D01*
X13671296Y-2120595D01*
X13684808Y-2129282D01*
X13699236Y-2136394D01*
X13714425Y-2141778D01*
X13730071Y-2145436D01*
X13746073Y-2147265D01*
X13762126Y-2147265D01*
X13778128Y-2145436D01*
X13793774Y-2141778D01*
X13808963Y-2136394D01*
X13823391Y-2129282D01*
X13836904Y-2120595D01*
X13849350Y-2110384D01*
X13860576Y-2098852D01*
X13870381Y-2086102D01*
X13878712Y-2072335D01*
X13885367Y-2057704D01*
X13890345Y-2042414D01*
X13893546Y-2026666D01*
X13894917Y-2010613D01*
X13894460Y-1994560D01*
X13892174Y-1978609D01*
X13888110Y-1963064D01*
X13882268Y-1948078D01*
X13874750Y-1933854D01*
X13865656Y-1920544D01*
X13855141Y-1908403D01*
X13843304Y-1897532D01*
X13830249Y-1888083D01*
X13816279Y-1880158D01*
X13801445Y-1873910D01*
X13786002Y-1869389D01*
X13770152Y-1866646D01*
X13754100Y-1865731D01*
X13738047Y-1866646D01*
X13722197Y-1869389D01*
X13706754Y-1873910D01*
X13691920Y-1880158D01*
X13677950Y-1888083D01*
X13664895Y-1897532D01*
X13653058Y-1908403D01*
X13642543Y-1920544D01*
X13633450Y-1933854D01*
X13625931Y-1948078D01*
X13620699Y-1961540D01*
X13618514Y-1964893D01*
X13615212Y-1967179D01*
X13611250Y-1967992D01*
X12804648Y-1967992D01*
X12800482Y-1967128D01*
X12797078Y-1964639D01*
X12794996Y-1960981D01*
X12793167Y-1955495D01*
X12786512Y-1940864D01*
X12778181Y-1927047D01*
X12768376Y-1914347D01*
X12757150Y-1902815D01*
X12744704Y-1892604D01*
X12731191Y-1883918D01*
X12716764Y-1876806D01*
X12701574Y-1871421D01*
X12685928Y-1867763D01*
X12669926Y-1865934D01*
X12653873Y-1865934D01*
X12637871Y-1867763D01*
X12622225Y-1871421D01*
X12607036Y-1876806D01*
X12592608Y-1883918D01*
X12579096Y-1892604D01*
X12566650Y-1902815D01*
X12555423Y-1914347D01*
X12545618Y-1927047D01*
X12537287Y-1940864D01*
X12530632Y-1955495D01*
X12528804Y-1960981D01*
X12526721Y-1964639D01*
X12523317Y-1967128D01*
X12519152Y-1967992D01*
X11280648Y-1967992D01*
X11276482Y-1967128D01*
X11273078Y-1964639D01*
X11270996Y-1960981D01*
X11269167Y-1955495D01*
X11262512Y-1940864D01*
X11254181Y-1927047D01*
X11244376Y-1914347D01*
X11233150Y-1902815D01*
X11220704Y-1892604D01*
X11207191Y-1883918D01*
X11192764Y-1876806D01*
X11177574Y-1871421D01*
X11161928Y-1867763D01*
X11145926Y-1865934D01*
X11129873Y-1865934D01*
X11113871Y-1867763D01*
X11098225Y-1871421D01*
X11083036Y-1876806D01*
X11068608Y-1883918D01*
X11055096Y-1892604D01*
X11042650Y-1902815D01*
X11031423Y-1914347D01*
X11021618Y-1927047D01*
X11013287Y-1940864D01*
X11006632Y-1955495D01*
X11004804Y-1960981D01*
X11002721Y-1964639D01*
X10999317Y-1967128D01*
X10995152Y-1967992D01*
X9756648Y-1967992D01*
X9752482Y-1967128D01*
X9749078Y-1964639D01*
X9746996Y-1960981D01*
X9745167Y-1955495D01*
X9738512Y-1940864D01*
X9730181Y-1927047D01*
X9720376Y-1914347D01*
X9709150Y-1902815D01*
X9696704Y-1892604D01*
X9683191Y-1883918D01*
X9668764Y-1876806D01*
X9653574Y-1871421D01*
X9637928Y-1867763D01*
X9621926Y-1865934D01*
X9605873Y-1865934D01*
X9589871Y-1867763D01*
X9574225Y-1871421D01*
X9559036Y-1876806D01*
X9544608Y-1883918D01*
X9531096Y-1892604D01*
X9518650Y-1902815D01*
X9507423Y-1914347D01*
X9497618Y-1927047D01*
X9489287Y-1940864D01*
X9482632Y-1955495D01*
X9480804Y-1960981D01*
X9478721Y-1964639D01*
X9475317Y-1967128D01*
X9471152Y-1967992D01*
X8232648Y-1967992D01*
X8228482Y-1967128D01*
X8225078Y-1964639D01*
X8222996Y-1960981D01*
X8221167Y-1955495D01*
X8214512Y-1940864D01*
X8206181Y-1927047D01*
X8196376Y-1914347D01*
X8185150Y-1902815D01*
X8172703Y-1892604D01*
X8159191Y-1883918D01*
X8144764Y-1876806D01*
X8129574Y-1871421D01*
X8113928Y-1867763D01*
X8097926Y-1865934D01*
X8081873Y-1865934D01*
X8065871Y-1867763D01*
X8050225Y-1871421D01*
X8035036Y-1876806D01*
X8020608Y-1883918D01*
X8007096Y-1892604D01*
X7994650Y-1902815D01*
X7983423Y-1914347D01*
X7973618Y-1927047D01*
X7965287Y-1940864D01*
X7958632Y-1955495D01*
X7956803Y-1960981D01*
X7954721Y-1964639D01*
X7951317Y-1967128D01*
X7947152Y-1967992D01*
X6708648Y-1967992D01*
X6704482Y-1967128D01*
X6701078Y-1964639D01*
X6698996Y-1960981D01*
X6697167Y-1955495D01*
X6690512Y-1940864D01*
X6682181Y-1927047D01*
X6672376Y-1914347D01*
X6661150Y-1902815D01*
X6648703Y-1892604D01*
X6635191Y-1883918D01*
X6620764Y-1876806D01*
X6605574Y-1871421D01*
X6589928Y-1867763D01*
X6573926Y-1865934D01*
X6557873Y-1865934D01*
X6541871Y-1867763D01*
X6526225Y-1871421D01*
X6511035Y-1876806D01*
X6496608Y-1883918D01*
X6483096Y-1892604D01*
X6470650Y-1902815D01*
X6459423Y-1914347D01*
X6449618Y-1927047D01*
X6441287Y-1940864D01*
X6434632Y-1955495D01*
X6432804Y-1960981D01*
X6430721Y-1964639D01*
X6427317Y-1967128D01*
X6423152Y-1967992D01*
X5184648Y-1967992D01*
X5180482Y-1967128D01*
X5177078Y-1964639D01*
X5174996Y-1960981D01*
X5173167Y-1955495D01*
X5166512Y-1940864D01*
X5158181Y-1927047D01*
X5148376Y-1914347D01*
X5137150Y-1902815D01*
X5124704Y-1892604D01*
X5111191Y-1883918D01*
X5096764Y-1876806D01*
X5081574Y-1871421D01*
X5065928Y-1867763D01*
X5049926Y-1865934D01*
X5033873Y-1865934D01*
X5017871Y-1867763D01*
X5002225Y-1871421D01*
X4987036Y-1876806D01*
X4972608Y-1883918D01*
X4959096Y-1892604D01*
X4946650Y-1902815D01*
X4935423Y-1914347D01*
X4925618Y-1927047D01*
X4917287Y-1940864D01*
X4910632Y-1955495D01*
X4908804Y-1960981D01*
X4906721Y-1964639D01*
X4903317Y-1967128D01*
X4899152Y-1967992D01*
X3660648Y-1967992D01*
X3656482Y-1967128D01*
X3653078Y-1964639D01*
X3650996Y-1960981D01*
X3649167Y-1955495D01*
X3642512Y-1940864D01*
X3634181Y-1927047D01*
X3624376Y-1914347D01*
X3613150Y-1902815D01*
X3600704Y-1892604D01*
X3587191Y-1883918D01*
X3572764Y-1876806D01*
X3557574Y-1871421D01*
X3541928Y-1867763D01*
X3525926Y-1865934D01*
X3509873Y-1865934D01*
X3493871Y-1867763D01*
X3478225Y-1871421D01*
X3463036Y-1876806D01*
X3448608Y-1883918D01*
X3435096Y-1892604D01*
X3422650Y-1902815D01*
X3411423Y-1914347D01*
X3401618Y-1927047D01*
X3393287Y-1940864D01*
X3386632Y-1955495D01*
X3384804Y-1960981D01*
X3382721Y-1964639D01*
X3379317Y-1967128D01*
X3375151Y-1967992D01*
X2136648Y-1967992D01*
X2132482Y-1967128D01*
X2129078Y-1964639D01*
X2126996Y-1960981D01*
X2125167Y-1955495D01*
X2118512Y-1940864D01*
X2110181Y-1927047D01*
X2100376Y-1914347D01*
X2089150Y-1902815D01*
X2076704Y-1892604D01*
X2063191Y-1883918D01*
X2048764Y-1876806D01*
X2033574Y-1871421D01*
X2017928Y-1867763D01*
X2001926Y-1865934D01*
X1985873Y-1865934D01*
X1969871Y-1867763D01*
X1954225Y-1871421D01*
X1939036Y-1876806D01*
X1924608Y-1883918D01*
X1911096Y-1892604D01*
X1898650Y-1902815D01*
X1887423Y-1914347D01*
X1877618Y-1927047D01*
X1869287Y-1940864D01*
X1862632Y-1955495D01*
X1860804Y-1960981D01*
X1858721Y-1964639D01*
X1855317Y-1967128D01*
X1851152Y-1967992D01*
X892048Y-1967992D01*
X887882Y-1967128D01*
X884478Y-1964639D01*
X882396Y-1960981D01*
X880567Y-1955495D01*
X873912Y-1940864D01*
X865581Y-1927098D01*
X855776Y-1914347D01*
X844550Y-1902815D01*
X832103Y-1892604D01*
X818591Y-1883918D01*
X804164Y-1876806D01*
X788974Y-1871421D01*
X773328Y-1867763D01*
X757326Y-1865934D01*
X741273Y-1865934D01*
X725271Y-1867763D01*
X709625Y-1871421D01*
X694436Y-1876806D01*
X680008Y-1883918D01*
X666496Y-1892604D01*
X654050Y-1902815D01*
X642823Y-1914347D01*
X633018Y-1927098D01*
X624687Y-1940864D01*
X618032Y-1955495D01*
X613054Y-1970786D01*
X609854Y-1986534D01*
X608482Y-2002586D01*
X608939Y-2018639D01*
X611225Y-2034590D01*
X615289Y-2050135D01*
X621131Y-2065121D01*
X628650Y-2079345D01*
X637743Y-2092655D01*
X648258Y-2104796D01*
X660095Y-2115667D01*
X673150Y-2125116D01*
X687120Y-2133041D01*
X701954Y-2139289D01*
X717397Y-2143810D01*
X733247Y-2146554D01*
G37*
G36*
X749300Y-1647494D02*
G01*
X765352Y-1646580D01*
X781202Y-1643837D01*
X796645Y-1639265D01*
X811479Y-1633016D01*
X825449Y-1625092D01*
X838504Y-1615643D01*
X850341Y-1604772D01*
X860856Y-1592630D01*
X869950Y-1579372D01*
X877468Y-1565097D01*
X882700Y-1551686D01*
X884885Y-1548282D01*
X888187Y-1545996D01*
X892149Y-1545234D01*
X1851050Y-1545234D01*
X1855012Y-1545996D01*
X1858314Y-1548282D01*
X1860499Y-1551686D01*
X1865731Y-1565148D01*
X1873250Y-1579372D01*
X1882343Y-1592630D01*
X1892858Y-1604772D01*
X1904695Y-1615643D01*
X1917750Y-1625142D01*
X1931720Y-1633016D01*
X1946554Y-1639316D01*
X1961997Y-1643837D01*
X1977847Y-1646580D01*
X1993900Y-1647494D01*
X2009952Y-1646580D01*
X2025802Y-1643837D01*
X2041245Y-1639316D01*
X2056079Y-1633016D01*
X2070049Y-1625142D01*
X2083104Y-1615643D01*
X2094941Y-1604772D01*
X2105456Y-1592630D01*
X2114550Y-1579372D01*
X2122068Y-1565148D01*
X2127300Y-1551686D01*
X2129485Y-1548282D01*
X2132787Y-1545996D01*
X2136749Y-1545234D01*
X3375050Y-1545234D01*
X3379012Y-1545996D01*
X3382314Y-1548282D01*
X3384499Y-1551686D01*
X3389731Y-1565148D01*
X3397250Y-1579372D01*
X3406343Y-1592630D01*
X3416858Y-1604772D01*
X3428695Y-1615643D01*
X3441750Y-1625142D01*
X3455720Y-1633016D01*
X3470554Y-1639316D01*
X3485997Y-1643837D01*
X3501847Y-1646580D01*
X3517900Y-1647494D01*
X3533952Y-1646580D01*
X3549802Y-1643837D01*
X3565245Y-1639316D01*
X3580079Y-1633016D01*
X3594049Y-1625142D01*
X3607104Y-1615643D01*
X3618941Y-1604772D01*
X3629456Y-1592630D01*
X3638550Y-1579372D01*
X3646068Y-1565148D01*
X3651300Y-1551686D01*
X3653485Y-1548282D01*
X3656787Y-1545996D01*
X3660749Y-1545234D01*
X4899050Y-1545234D01*
X4903012Y-1545996D01*
X4906314Y-1548282D01*
X4908499Y-1551686D01*
X4913731Y-1565148D01*
X4921250Y-1579372D01*
X4930343Y-1592630D01*
X4940858Y-1604772D01*
X4952695Y-1615643D01*
X4965750Y-1625142D01*
X4979720Y-1633016D01*
X4994554Y-1639316D01*
X5009997Y-1643837D01*
X5025847Y-1646580D01*
X5041900Y-1647494D01*
X5057952Y-1646580D01*
X5073802Y-1643837D01*
X5089245Y-1639316D01*
X5104079Y-1633016D01*
X5118049Y-1625142D01*
X5131104Y-1615643D01*
X5142941Y-1604772D01*
X5153456Y-1592630D01*
X5162550Y-1579372D01*
X5170068Y-1565148D01*
X5175300Y-1551686D01*
X5177485Y-1548282D01*
X5180787Y-1545996D01*
X5184749Y-1545234D01*
X6423050Y-1545234D01*
X6427012Y-1545996D01*
X6430314Y-1548282D01*
X6432499Y-1551686D01*
X6437731Y-1565148D01*
X6445250Y-1579372D01*
X6454343Y-1592630D01*
X6464858Y-1604772D01*
X6476695Y-1615643D01*
X6489750Y-1625142D01*
X6503720Y-1633016D01*
X6518554Y-1639316D01*
X6533997Y-1643837D01*
X6549847Y-1646580D01*
X6565900Y-1647494D01*
X6581952Y-1646580D01*
X6597802Y-1643837D01*
X6613245Y-1639316D01*
X6628079Y-1633016D01*
X6642049Y-1625142D01*
X6655104Y-1615643D01*
X6666941Y-1604772D01*
X6677456Y-1592630D01*
X6686550Y-1579372D01*
X6694068Y-1565148D01*
X6699300Y-1551686D01*
X6701485Y-1548282D01*
X6704787Y-1545996D01*
X6708749Y-1545234D01*
X7947050Y-1545234D01*
X7951012Y-1545996D01*
X7954314Y-1548282D01*
X7956499Y-1551686D01*
X7961731Y-1565148D01*
X7969250Y-1579372D01*
X7978343Y-1592630D01*
X7988858Y-1604772D01*
X8000695Y-1615643D01*
X8013750Y-1625142D01*
X8027720Y-1633016D01*
X8042554Y-1639316D01*
X8057997Y-1643837D01*
X8073847Y-1646580D01*
X8089900Y-1647494D01*
X8105952Y-1646580D01*
X8121802Y-1643837D01*
X8137245Y-1639316D01*
X8152079Y-1633016D01*
X8166049Y-1625142D01*
X8179104Y-1615643D01*
X8190941Y-1604772D01*
X8201456Y-1592630D01*
X8210550Y-1579372D01*
X8218068Y-1565148D01*
X8223300Y-1551686D01*
X8225485Y-1548282D01*
X8228787Y-1545996D01*
X8232749Y-1545234D01*
X9471050Y-1545234D01*
X9475012Y-1545996D01*
X9478314Y-1548282D01*
X9480499Y-1551686D01*
X9485731Y-1565148D01*
X9493250Y-1579372D01*
X9502343Y-1592630D01*
X9512858Y-1604772D01*
X9524695Y-1615643D01*
X9537750Y-1625142D01*
X9551720Y-1633016D01*
X9566554Y-1639316D01*
X9581997Y-1643837D01*
X9597847Y-1646580D01*
X9613900Y-1647494D01*
X9629952Y-1646580D01*
X9645802Y-1643837D01*
X9661245Y-1639316D01*
X9676079Y-1633016D01*
X9690049Y-1625142D01*
X9703104Y-1615643D01*
X9714941Y-1604772D01*
X9725456Y-1592630D01*
X9734550Y-1579372D01*
X9742068Y-1565148D01*
X9747300Y-1551686D01*
X9749485Y-1548282D01*
X9752787Y-1545996D01*
X9756749Y-1545234D01*
X10995050Y-1545234D01*
X10999012Y-1545996D01*
X11002314Y-1548282D01*
X11004499Y-1551686D01*
X11009731Y-1565148D01*
X11017250Y-1579372D01*
X11026343Y-1592630D01*
X11036858Y-1604772D01*
X11048695Y-1615643D01*
X11061750Y-1625142D01*
X11075720Y-1633016D01*
X11090554Y-1639316D01*
X11105997Y-1643837D01*
X11121847Y-1646580D01*
X11137900Y-1647494D01*
X11153952Y-1646580D01*
X11169802Y-1643837D01*
X11185245Y-1639316D01*
X11200079Y-1633016D01*
X11214049Y-1625142D01*
X11227104Y-1615643D01*
X11238941Y-1604772D01*
X11249456Y-1592630D01*
X11258550Y-1579372D01*
X11266068Y-1565148D01*
X11271300Y-1551686D01*
X11273485Y-1548282D01*
X11276787Y-1545996D01*
X11280749Y-1545234D01*
X12519050Y-1545234D01*
X12523012Y-1545996D01*
X12526314Y-1548282D01*
X12528499Y-1551686D01*
X12533731Y-1565148D01*
X12541250Y-1579372D01*
X12550343Y-1592630D01*
X12560858Y-1604772D01*
X12572695Y-1615643D01*
X12585750Y-1625142D01*
X12599720Y-1633016D01*
X12614554Y-1639316D01*
X12629997Y-1643837D01*
X12645847Y-1646580D01*
X12661900Y-1647494D01*
X12677952Y-1646580D01*
X12693802Y-1643837D01*
X12709245Y-1639316D01*
X12724079Y-1633016D01*
X12738049Y-1625142D01*
X12751104Y-1615643D01*
X12762941Y-1604772D01*
X12773456Y-1592630D01*
X12782550Y-1579372D01*
X12790068Y-1565148D01*
X12795300Y-1551686D01*
X12797485Y-1548282D01*
X12800787Y-1545996D01*
X12804749Y-1545234D01*
X13611351Y-1545234D01*
X13615466Y-1546098D01*
X13618921Y-1548587D01*
X13621004Y-1552244D01*
X13622832Y-1557731D01*
X13629487Y-1572361D01*
X13637818Y-1586128D01*
X13647623Y-1598879D01*
X13658850Y-1610410D01*
X13671296Y-1620621D01*
X13684808Y-1629308D01*
X13699236Y-1636420D01*
X13714425Y-1641805D01*
X13730071Y-1645462D01*
X13746073Y-1647291D01*
X13762126Y-1647291D01*
X13778128Y-1645462D01*
X13793774Y-1641805D01*
X13808963Y-1636420D01*
X13823391Y-1629308D01*
X13836904Y-1620621D01*
X13849350Y-1610410D01*
X13860576Y-1598879D01*
X13870381Y-1586128D01*
X13878712Y-1572361D01*
X13885367Y-1557731D01*
X13890345Y-1542440D01*
X13893546Y-1526692D01*
X13894917Y-1510639D01*
X13894460Y-1494586D01*
X13892174Y-1478635D01*
X13888110Y-1463090D01*
X13882268Y-1448104D01*
X13874750Y-1433880D01*
X13865656Y-1420571D01*
X13855141Y-1408430D01*
X13843304Y-1397558D01*
X13830249Y-1388110D01*
X13816279Y-1380185D01*
X13801445Y-1373936D01*
X13786002Y-1369364D01*
X13770152Y-1366621D01*
X13754100Y-1365707D01*
X13738047Y-1366621D01*
X13722197Y-1369364D01*
X13706754Y-1373936D01*
X13691920Y-1380185D01*
X13677950Y-1388110D01*
X13664895Y-1397558D01*
X13653058Y-1408430D01*
X13642543Y-1420571D01*
X13633450Y-1433880D01*
X13625931Y-1448104D01*
X13620699Y-1461516D01*
X13618514Y-1464919D01*
X13615212Y-1467205D01*
X13611250Y-1468018D01*
X12804648Y-1468018D01*
X12800482Y-1467104D01*
X12797078Y-1464614D01*
X12794996Y-1460957D01*
X12793167Y-1455470D01*
X12786512Y-1440840D01*
X12778181Y-1427073D01*
X12768376Y-1414322D01*
X12757150Y-1402791D01*
X12744704Y-1392631D01*
X12731191Y-1383893D01*
X12716764Y-1376832D01*
X12701574Y-1371396D01*
X12685928Y-1367790D01*
X12669926Y-1365961D01*
X12653873Y-1365961D01*
X12637871Y-1367790D01*
X12622225Y-1371396D01*
X12607036Y-1376832D01*
X12592608Y-1383893D01*
X12579096Y-1392631D01*
X12566650Y-1402791D01*
X12555423Y-1414322D01*
X12545618Y-1427073D01*
X12537287Y-1440840D01*
X12530632Y-1455470D01*
X12528804Y-1460957D01*
X12526721Y-1464614D01*
X12523317Y-1467104D01*
X12519152Y-1468018D01*
X11280648Y-1468018D01*
X11276482Y-1467104D01*
X11273078Y-1464614D01*
X11270996Y-1460957D01*
X11269167Y-1455470D01*
X11262512Y-1440840D01*
X11254181Y-1427073D01*
X11244376Y-1414322D01*
X11233150Y-1402791D01*
X11220704Y-1392631D01*
X11207191Y-1383893D01*
X11192764Y-1376832D01*
X11177574Y-1371396D01*
X11161928Y-1367790D01*
X11145926Y-1365961D01*
X11129873Y-1365961D01*
X11113871Y-1367790D01*
X11098225Y-1371396D01*
X11083036Y-1376832D01*
X11068608Y-1383893D01*
X11055096Y-1392631D01*
X11042650Y-1402791D01*
X11031423Y-1414322D01*
X11021618Y-1427073D01*
X11013287Y-1440840D01*
X11006632Y-1455470D01*
X11004804Y-1460957D01*
X11002721Y-1464614D01*
X10999317Y-1467104D01*
X10995152Y-1468018D01*
X9756648Y-1468018D01*
X9752482Y-1467104D01*
X9749078Y-1464614D01*
X9746996Y-1460957D01*
X9745167Y-1455470D01*
X9738512Y-1440840D01*
X9730181Y-1427073D01*
X9720376Y-1414322D01*
X9709150Y-1402791D01*
X9696704Y-1392631D01*
X9683191Y-1383893D01*
X9668764Y-1376832D01*
X9653574Y-1371396D01*
X9637928Y-1367790D01*
X9621926Y-1365961D01*
X9605873Y-1365961D01*
X9589871Y-1367790D01*
X9574225Y-1371396D01*
X9559036Y-1376832D01*
X9544608Y-1383893D01*
X9531096Y-1392631D01*
X9518650Y-1402791D01*
X9507423Y-1414322D01*
X9497618Y-1427073D01*
X9489287Y-1440840D01*
X9482632Y-1455470D01*
X9480804Y-1460957D01*
X9478721Y-1464614D01*
X9475317Y-1467104D01*
X9471152Y-1468018D01*
X8232648Y-1468018D01*
X8228482Y-1467104D01*
X8225078Y-1464614D01*
X8222996Y-1460957D01*
X8221167Y-1455470D01*
X8214512Y-1440840D01*
X8206181Y-1427073D01*
X8196376Y-1414322D01*
X8185150Y-1402791D01*
X8172703Y-1392631D01*
X8159191Y-1383893D01*
X8144764Y-1376832D01*
X8129574Y-1371396D01*
X8113928Y-1367790D01*
X8097926Y-1365961D01*
X8081873Y-1365961D01*
X8065871Y-1367790D01*
X8050225Y-1371396D01*
X8035036Y-1376832D01*
X8020608Y-1383893D01*
X8007096Y-1392631D01*
X7994650Y-1402791D01*
X7983423Y-1414322D01*
X7973618Y-1427073D01*
X7965287Y-1440840D01*
X7958632Y-1455470D01*
X7956803Y-1460957D01*
X7954721Y-1464614D01*
X7951317Y-1467104D01*
X7947152Y-1468018D01*
X6708648Y-1468018D01*
X6704482Y-1467104D01*
X6701078Y-1464614D01*
X6698996Y-1460957D01*
X6697167Y-1455470D01*
X6690512Y-1440840D01*
X6682181Y-1427073D01*
X6672376Y-1414322D01*
X6661150Y-1402791D01*
X6648703Y-1392631D01*
X6635191Y-1383893D01*
X6620764Y-1376832D01*
X6605574Y-1371396D01*
X6589928Y-1367790D01*
X6573926Y-1365961D01*
X6557873Y-1365961D01*
X6541871Y-1367790D01*
X6526225Y-1371396D01*
X6511035Y-1376832D01*
X6496608Y-1383893D01*
X6483096Y-1392631D01*
X6470650Y-1402791D01*
X6459423Y-1414322D01*
X6449618Y-1427073D01*
X6441287Y-1440840D01*
X6434632Y-1455470D01*
X6432804Y-1460957D01*
X6430721Y-1464614D01*
X6427317Y-1467104D01*
X6423152Y-1468018D01*
X5184648Y-1468018D01*
X5180482Y-1467104D01*
X5177078Y-1464614D01*
X5174996Y-1460957D01*
X5173167Y-1455470D01*
X5166512Y-1440840D01*
X5158181Y-1427073D01*
X5148376Y-1414322D01*
X5137150Y-1402791D01*
X5124704Y-1392631D01*
X5111191Y-1383893D01*
X5096764Y-1376832D01*
X5081574Y-1371396D01*
X5065928Y-1367790D01*
X5049926Y-1365961D01*
X5033873Y-1365961D01*
X5017871Y-1367790D01*
X5002225Y-1371396D01*
X4987036Y-1376832D01*
X4972608Y-1383893D01*
X4959096Y-1392631D01*
X4946650Y-1402791D01*
X4935423Y-1414322D01*
X4925618Y-1427073D01*
X4917287Y-1440840D01*
X4910632Y-1455470D01*
X4908804Y-1460957D01*
X4906721Y-1464614D01*
X4903317Y-1467104D01*
X4899152Y-1468018D01*
X3660648Y-1468018D01*
X3656482Y-1467104D01*
X3653078Y-1464614D01*
X3650996Y-1460957D01*
X3649167Y-1455470D01*
X3642512Y-1440840D01*
X3634181Y-1427073D01*
X3624376Y-1414322D01*
X3613150Y-1402791D01*
X3600704Y-1392631D01*
X3587191Y-1383893D01*
X3572764Y-1376832D01*
X3557574Y-1371396D01*
X3541928Y-1367790D01*
X3525926Y-1365961D01*
X3509873Y-1365961D01*
X3493871Y-1367790D01*
X3478225Y-1371396D01*
X3463036Y-1376832D01*
X3448608Y-1383893D01*
X3435096Y-1392631D01*
X3422650Y-1402791D01*
X3411423Y-1414322D01*
X3401618Y-1427073D01*
X3393287Y-1440840D01*
X3386632Y-1455470D01*
X3384804Y-1460957D01*
X3382721Y-1464614D01*
X3379317Y-1467104D01*
X3375151Y-1468018D01*
X2136648Y-1468018D01*
X2132482Y-1467104D01*
X2129078Y-1464614D01*
X2126996Y-1460957D01*
X2125167Y-1455470D01*
X2118512Y-1440840D01*
X2110181Y-1427073D01*
X2100376Y-1414322D01*
X2089150Y-1402791D01*
X2076704Y-1392631D01*
X2063191Y-1383893D01*
X2048764Y-1376832D01*
X2033574Y-1371396D01*
X2017928Y-1367790D01*
X2001926Y-1365961D01*
X1985873Y-1365961D01*
X1969871Y-1367790D01*
X1954225Y-1371396D01*
X1939036Y-1376832D01*
X1924608Y-1383893D01*
X1911096Y-1392631D01*
X1898650Y-1402791D01*
X1887423Y-1414322D01*
X1877618Y-1427073D01*
X1869287Y-1440840D01*
X1862632Y-1455470D01*
X1860804Y-1460957D01*
X1858721Y-1464614D01*
X1855317Y-1467104D01*
X1851152Y-1468018D01*
X892048Y-1468018D01*
X887933Y-1467104D01*
X884478Y-1464614D01*
X882396Y-1460957D01*
X880567Y-1455470D01*
X873912Y-1440840D01*
X865581Y-1427073D01*
X855776Y-1414322D01*
X844550Y-1402791D01*
X832103Y-1392631D01*
X818591Y-1383893D01*
X804164Y-1376832D01*
X788974Y-1371396D01*
X773328Y-1367739D01*
X757326Y-1365910D01*
X741273Y-1365910D01*
X725271Y-1367739D01*
X709625Y-1371396D01*
X694436Y-1376832D01*
X680008Y-1383893D01*
X666496Y-1392631D01*
X654050Y-1402791D01*
X642823Y-1414322D01*
X633018Y-1427073D01*
X624687Y-1440840D01*
X618032Y-1455470D01*
X613054Y-1470761D01*
X609854Y-1486560D01*
X608482Y-1502562D01*
X608939Y-1518666D01*
X611225Y-1534566D01*
X615289Y-1550111D01*
X621131Y-1565097D01*
X628650Y-1579372D01*
X637743Y-1592630D01*
X648258Y-1604772D01*
X660095Y-1615643D01*
X673150Y-1625092D01*
X687120Y-1633016D01*
X701954Y-1639265D01*
X717397Y-1643837D01*
X733247Y-1646580D01*
G37*
G36*
X634847Y-1147521D02*
G01*
X863752Y-1147521D01*
X870051Y-1146810D01*
X875537Y-1144879D01*
X880414Y-1141780D01*
X884529Y-1137716D01*
X887577Y-1132789D01*
X889508Y-1127353D01*
X890219Y-1121003D01*
X890219Y-1080668D01*
X890981Y-1076756D01*
X893165Y-1073505D01*
X896467Y-1071270D01*
X900379Y-1070508D01*
X1862480Y-1070508D01*
X1866036Y-1071168D01*
X1869186Y-1073048D01*
X1871421Y-1075944D01*
X1873250Y-1079347D01*
X1882343Y-1092657D01*
X1892858Y-1104798D01*
X1904695Y-1115669D01*
X1917750Y-1125118D01*
X1931720Y-1133043D01*
X1946554Y-1139291D01*
X1961997Y-1143812D01*
X1977847Y-1146556D01*
X1993900Y-1147470D01*
X2009952Y-1146556D01*
X2025802Y-1143812D01*
X2041245Y-1139291D01*
X2056079Y-1133043D01*
X2070049Y-1125118D01*
X2083104Y-1115669D01*
X2094941Y-1104798D01*
X2105456Y-1092657D01*
X2114550Y-1079347D01*
X2116378Y-1075944D01*
X2118614Y-1073048D01*
X2121763Y-1071168D01*
X2125319Y-1070508D01*
X3386480Y-1070508D01*
X3390036Y-1071168D01*
X3393186Y-1073048D01*
X3395421Y-1075944D01*
X3397250Y-1079347D01*
X3406343Y-1092657D01*
X3416858Y-1104798D01*
X3428695Y-1115669D01*
X3441750Y-1125118D01*
X3455720Y-1133043D01*
X3470554Y-1139291D01*
X3485997Y-1143812D01*
X3501847Y-1146556D01*
X3517900Y-1147470D01*
X3533952Y-1146556D01*
X3549802Y-1143812D01*
X3565245Y-1139291D01*
X3580079Y-1133043D01*
X3594049Y-1125118D01*
X3607104Y-1115669D01*
X3618941Y-1104798D01*
X3629456Y-1092657D01*
X3638550Y-1079347D01*
X3640378Y-1075944D01*
X3642614Y-1073048D01*
X3645763Y-1071168D01*
X3649319Y-1070508D01*
X4910480Y-1070508D01*
X4914036Y-1071168D01*
X4917186Y-1073048D01*
X4919421Y-1075944D01*
X4921250Y-1079347D01*
X4930343Y-1092657D01*
X4940858Y-1104798D01*
X4952695Y-1115669D01*
X4965750Y-1125118D01*
X4979720Y-1133043D01*
X4994554Y-1139291D01*
X5009997Y-1143812D01*
X5025847Y-1146556D01*
X5041900Y-1147470D01*
X5057952Y-1146556D01*
X5073802Y-1143812D01*
X5089245Y-1139291D01*
X5104079Y-1133043D01*
X5118049Y-1125118D01*
X5131104Y-1115669D01*
X5142941Y-1104798D01*
X5153456Y-1092657D01*
X5162550Y-1079347D01*
X5164378Y-1075944D01*
X5166614Y-1073048D01*
X5169763Y-1071168D01*
X5173319Y-1070508D01*
X6434480Y-1070508D01*
X6438036Y-1071168D01*
X6441186Y-1073048D01*
X6443421Y-1075944D01*
X6445250Y-1079347D01*
X6454343Y-1092657D01*
X6464858Y-1104798D01*
X6476695Y-1115669D01*
X6489750Y-1125118D01*
X6503720Y-1133043D01*
X6518554Y-1139291D01*
X6533997Y-1143812D01*
X6549847Y-1146556D01*
X6565900Y-1147470D01*
X6581952Y-1146556D01*
X6597802Y-1143812D01*
X6613245Y-1139291D01*
X6628079Y-1133043D01*
X6642049Y-1125118D01*
X6655104Y-1115669D01*
X6666941Y-1104798D01*
X6677456Y-1092657D01*
X6686550Y-1079347D01*
X6688378Y-1075944D01*
X6690614Y-1073048D01*
X6693763Y-1071168D01*
X6697319Y-1070508D01*
X7958480Y-1070508D01*
X7962036Y-1071168D01*
X7965186Y-1073048D01*
X7967421Y-1075944D01*
X7969250Y-1079347D01*
X7978343Y-1092657D01*
X7988858Y-1104798D01*
X8000695Y-1115669D01*
X8013750Y-1125118D01*
X8027720Y-1133043D01*
X8042554Y-1139291D01*
X8057997Y-1143812D01*
X8073847Y-1146556D01*
X8089900Y-1147470D01*
X8105952Y-1146556D01*
X8121802Y-1143812D01*
X8137245Y-1139291D01*
X8152079Y-1133043D01*
X8166049Y-1125118D01*
X8179104Y-1115669D01*
X8190941Y-1104798D01*
X8201456Y-1092657D01*
X8210550Y-1079347D01*
X8212378Y-1075944D01*
X8214614Y-1073048D01*
X8217763Y-1071168D01*
X8221319Y-1070508D01*
X9482480Y-1070508D01*
X9486036Y-1071168D01*
X9489186Y-1073048D01*
X9491421Y-1075944D01*
X9493250Y-1079347D01*
X9502343Y-1092657D01*
X9512858Y-1104798D01*
X9524695Y-1115669D01*
X9537750Y-1125118D01*
X9551720Y-1133043D01*
X9566554Y-1139291D01*
X9581997Y-1143812D01*
X9597847Y-1146556D01*
X9613900Y-1147470D01*
X9629952Y-1146556D01*
X9645802Y-1143812D01*
X9661245Y-1139291D01*
X9676079Y-1133043D01*
X9690049Y-1125118D01*
X9703104Y-1115669D01*
X9714941Y-1104798D01*
X9725456Y-1092657D01*
X9734550Y-1079347D01*
X9736378Y-1075944D01*
X9738614Y-1073048D01*
X9741763Y-1071168D01*
X9745319Y-1070508D01*
X11006480Y-1070508D01*
X11010036Y-1071168D01*
X11013186Y-1073048D01*
X11015421Y-1075944D01*
X11017250Y-1079347D01*
X11026343Y-1092657D01*
X11036858Y-1104798D01*
X11048695Y-1115669D01*
X11061750Y-1125118D01*
X11075720Y-1133043D01*
X11090554Y-1139291D01*
X11105997Y-1143812D01*
X11121847Y-1146556D01*
X11137900Y-1147470D01*
X11153952Y-1146556D01*
X11169802Y-1143812D01*
X11185245Y-1139291D01*
X11200079Y-1133043D01*
X11214049Y-1125118D01*
X11227104Y-1115669D01*
X11238941Y-1104798D01*
X11249456Y-1092657D01*
X11258550Y-1079347D01*
X11260378Y-1075944D01*
X11262614Y-1073048D01*
X11265763Y-1071168D01*
X11269319Y-1070508D01*
X12530480Y-1070508D01*
X12534036Y-1071168D01*
X12537186Y-1073048D01*
X12539421Y-1075944D01*
X12541250Y-1079347D01*
X12550343Y-1092657D01*
X12560858Y-1104798D01*
X12572695Y-1115669D01*
X12585750Y-1125118D01*
X12599720Y-1133043D01*
X12614554Y-1139291D01*
X12629997Y-1143812D01*
X12645847Y-1146556D01*
X12661900Y-1147470D01*
X12677952Y-1146556D01*
X12693802Y-1143812D01*
X12709245Y-1139291D01*
X12724079Y-1133043D01*
X12738049Y-1125118D01*
X12751104Y-1115669D01*
X12762941Y-1104798D01*
X12773456Y-1092657D01*
X12782550Y-1079347D01*
X12784378Y-1075944D01*
X12786614Y-1073048D01*
X12789763Y-1071168D01*
X12793319Y-1070508D01*
X13622629Y-1070508D01*
X13626084Y-1071118D01*
X13629081Y-1072794D01*
X13631367Y-1075436D01*
X13637818Y-1086104D01*
X13647623Y-1098854D01*
X13658850Y-1110386D01*
X13671296Y-1120597D01*
X13684808Y-1129284D01*
X13699236Y-1136396D01*
X13714425Y-1141780D01*
X13730071Y-1145438D01*
X13746073Y-1147267D01*
X13762126Y-1147267D01*
X13778128Y-1145438D01*
X13793774Y-1141780D01*
X13808963Y-1136396D01*
X13823391Y-1129284D01*
X13836904Y-1120597D01*
X13849350Y-1110386D01*
X13860576Y-1098854D01*
X13870381Y-1086104D01*
X13878712Y-1072337D01*
X13885367Y-1057706D01*
X13890345Y-1042416D01*
X13893546Y-1026668D01*
X13894917Y-1010615D01*
X13894460Y-994562D01*
X13892174Y-978611D01*
X13888110Y-963066D01*
X13882268Y-948080D01*
X13874750Y-933856D01*
X13865656Y-920546D01*
X13855141Y-908405D01*
X13843304Y-897534D01*
X13830249Y-888085D01*
X13816279Y-880160D01*
X13801445Y-873912D01*
X13786002Y-869391D01*
X13770152Y-866648D01*
X13754100Y-865733D01*
X13738047Y-866648D01*
X13722197Y-869391D01*
X13706754Y-873912D01*
X13691920Y-880160D01*
X13677950Y-888085D01*
X13664895Y-897534D01*
X13653058Y-908405D01*
X13642543Y-920546D01*
X13633450Y-933856D01*
X13631621Y-937260D01*
X13629386Y-940155D01*
X13626236Y-942035D01*
X13622629Y-942695D01*
X12793370Y-942695D01*
X12789966Y-942086D01*
X12786918Y-940409D01*
X12784683Y-937768D01*
X12778181Y-927049D01*
X12768376Y-914349D01*
X12757150Y-902817D01*
X12744704Y-892606D01*
X12731191Y-883919D01*
X12716764Y-876808D01*
X12701574Y-871423D01*
X12685928Y-867765D01*
X12669926Y-865936D01*
X12653873Y-865936D01*
X12637871Y-867765D01*
X12622225Y-871423D01*
X12607036Y-876808D01*
X12592608Y-883919D01*
X12579096Y-892606D01*
X12566650Y-902817D01*
X12555423Y-914349D01*
X12545618Y-927049D01*
X12539116Y-937768D01*
X12536881Y-940409D01*
X12533833Y-942086D01*
X12530429Y-942695D01*
X11269370Y-942695D01*
X11265966Y-942086D01*
X11262918Y-940409D01*
X11260683Y-937768D01*
X11254181Y-927049D01*
X11244376Y-914349D01*
X11233150Y-902817D01*
X11220704Y-892606D01*
X11207191Y-883919D01*
X11192764Y-876808D01*
X11177574Y-871423D01*
X11161928Y-867765D01*
X11145926Y-865936D01*
X11129873Y-865936D01*
X11113871Y-867765D01*
X11098225Y-871423D01*
X11083036Y-876808D01*
X11068608Y-883919D01*
X11055096Y-892606D01*
X11042650Y-902817D01*
X11031423Y-914349D01*
X11021618Y-927049D01*
X11015116Y-937768D01*
X11012881Y-940409D01*
X11009833Y-942086D01*
X11006429Y-942695D01*
X9745370Y-942695D01*
X9741966Y-942086D01*
X9738918Y-940409D01*
X9736683Y-937768D01*
X9730181Y-927049D01*
X9720376Y-914349D01*
X9709150Y-902817D01*
X9696704Y-892606D01*
X9683191Y-883919D01*
X9668764Y-876808D01*
X9653574Y-871423D01*
X9637928Y-867765D01*
X9621926Y-865936D01*
X9605873Y-865936D01*
X9589871Y-867765D01*
X9574225Y-871423D01*
X9559036Y-876808D01*
X9544608Y-883919D01*
X9531096Y-892606D01*
X9518650Y-902817D01*
X9507423Y-914349D01*
X9497618Y-927049D01*
X9491116Y-937768D01*
X9488881Y-940409D01*
X9485833Y-942086D01*
X9482429Y-942695D01*
X8221370Y-942695D01*
X8217966Y-942086D01*
X8214918Y-940409D01*
X8212683Y-937768D01*
X8206181Y-927049D01*
X8196376Y-914349D01*
X8185150Y-902817D01*
X8172703Y-892606D01*
X8159191Y-883919D01*
X8144764Y-876808D01*
X8129574Y-871423D01*
X8113928Y-867765D01*
X8097926Y-865936D01*
X8081873Y-865936D01*
X8065871Y-867765D01*
X8050225Y-871423D01*
X8035036Y-876808D01*
X8020608Y-883919D01*
X8007096Y-892606D01*
X7994650Y-902817D01*
X7983423Y-914349D01*
X7973618Y-927049D01*
X7967116Y-937768D01*
X7964881Y-940409D01*
X7961833Y-942086D01*
X7958429Y-942695D01*
X6697370Y-942695D01*
X6693966Y-942086D01*
X6690918Y-940409D01*
X6688683Y-937768D01*
X6682181Y-927049D01*
X6672376Y-914349D01*
X6661150Y-902817D01*
X6648703Y-892606D01*
X6635191Y-883919D01*
X6620764Y-876808D01*
X6605574Y-871423D01*
X6589928Y-867765D01*
X6573926Y-865936D01*
X6557873Y-865936D01*
X6541871Y-867765D01*
X6526225Y-871423D01*
X6511035Y-876808D01*
X6496608Y-883919D01*
X6483096Y-892606D01*
X6470650Y-902817D01*
X6459423Y-914349D01*
X6449618Y-927049D01*
X6443116Y-937768D01*
X6440881Y-940409D01*
X6437833Y-942086D01*
X6434429Y-942695D01*
X5173370Y-942695D01*
X5169966Y-942086D01*
X5166918Y-940409D01*
X5164683Y-937768D01*
X5158181Y-927049D01*
X5148376Y-914349D01*
X5137150Y-902817D01*
X5124704Y-892606D01*
X5111191Y-883919D01*
X5096764Y-876808D01*
X5081574Y-871423D01*
X5065928Y-867765D01*
X5049926Y-865936D01*
X5033873Y-865936D01*
X5017871Y-867765D01*
X5002225Y-871423D01*
X4987036Y-876808D01*
X4972608Y-883919D01*
X4959096Y-892606D01*
X4946650Y-902817D01*
X4935423Y-914349D01*
X4925618Y-927049D01*
X4919116Y-937768D01*
X4916881Y-940409D01*
X4913833Y-942086D01*
X4910429Y-942695D01*
X3649370Y-942695D01*
X3645966Y-942086D01*
X3642918Y-940409D01*
X3640683Y-937768D01*
X3634181Y-927049D01*
X3624376Y-914349D01*
X3613150Y-902817D01*
X3600704Y-892606D01*
X3587191Y-883919D01*
X3572764Y-876808D01*
X3557574Y-871423D01*
X3541928Y-867765D01*
X3525926Y-865936D01*
X3509873Y-865936D01*
X3493871Y-867765D01*
X3478225Y-871423D01*
X3463036Y-876808D01*
X3448608Y-883919D01*
X3435096Y-892606D01*
X3422650Y-902817D01*
X3411423Y-914349D01*
X3401618Y-927049D01*
X3395116Y-937768D01*
X3392881Y-940409D01*
X3389833Y-942086D01*
X3386429Y-942695D01*
X2125370Y-942695D01*
X2121966Y-942086D01*
X2118918Y-940409D01*
X2116683Y-937768D01*
X2110181Y-927049D01*
X2100376Y-914349D01*
X2089150Y-902817D01*
X2076704Y-892606D01*
X2063191Y-883919D01*
X2048764Y-876808D01*
X2033574Y-871423D01*
X2017928Y-867765D01*
X2001926Y-865936D01*
X1985873Y-865936D01*
X1969871Y-867765D01*
X1954225Y-871423D01*
X1939036Y-876808D01*
X1924608Y-883919D01*
X1911096Y-892606D01*
X1898650Y-902817D01*
X1887423Y-914349D01*
X1877618Y-927049D01*
X1871116Y-937768D01*
X1868881Y-940409D01*
X1865833Y-942086D01*
X1862429Y-942695D01*
X900379Y-942695D01*
X896467Y-941933D01*
X893165Y-939698D01*
X890981Y-936447D01*
X890219Y-932535D01*
X890219Y-892149D01*
X889508Y-885850D01*
X887577Y-880364D01*
X884529Y-875487D01*
X880414Y-871372D01*
X875537Y-868324D01*
X870051Y-866394D01*
X863752Y-865682D01*
X634847Y-865682D01*
X628548Y-866394D01*
X623062Y-868324D01*
X618185Y-871372D01*
X614070Y-875487D01*
X611022Y-880364D01*
X609092Y-885850D01*
X608380Y-892149D01*
X608380Y-1121003D01*
X609092Y-1127353D01*
X611022Y-1132789D01*
X614070Y-1137716D01*
X618185Y-1141780D01*
X623062Y-1144879D01*
X628548Y-1146810D01*
G37*
G36*
X14487651Y-452374D02*
G01*
X14506448Y-452374D01*
X14525193Y-450443D01*
X14543633Y-446684D01*
X14561616Y-441045D01*
X14578939Y-433578D01*
X14595398Y-424434D01*
X14610842Y-413715D01*
X14625116Y-401421D01*
X14638121Y-387807D01*
X14649602Y-372872D01*
X14659610Y-356920D01*
X14667890Y-340004D01*
X14674443Y-322326D01*
X14679117Y-304139D01*
X14682012Y-285496D01*
X14682927Y-266700D01*
X14682012Y-247904D01*
X14679117Y-229260D01*
X14674443Y-211074D01*
X14667890Y-193395D01*
X14659610Y-176479D01*
X14649602Y-160528D01*
X14638121Y-145592D01*
X14625116Y-131978D01*
X14610842Y-119684D01*
X14595398Y-108966D01*
X14578939Y-99822D01*
X14561616Y-92354D01*
X14543633Y-86715D01*
X14525193Y-82956D01*
X14506448Y-81026D01*
X14487651Y-81026D01*
X14468906Y-82956D01*
X14450466Y-86715D01*
X14432483Y-92354D01*
X14415160Y-99822D01*
X14398701Y-108966D01*
X14383257Y-119684D01*
X14368983Y-131978D01*
X14355978Y-145592D01*
X14344497Y-160528D01*
X14334490Y-176479D01*
X14326209Y-193395D01*
X14319656Y-211074D01*
X14314982Y-229260D01*
X14312087Y-247904D01*
X14311172Y-266700D01*
X14312087Y-285496D01*
X14314982Y-304139D01*
X14319656Y-322326D01*
X14326209Y-340004D01*
X14334490Y-356920D01*
X14344497Y-372872D01*
X14355978Y-387807D01*
X14368983Y-401421D01*
X14383257Y-413715D01*
X14398701Y-424434D01*
X14415160Y-433578D01*
X14432483Y-441045D01*
X14450466Y-446684D01*
X14468906Y-450443D01*
G37*
G36*
X7369302Y-452374D02*
G01*
X7388098Y-452374D01*
X7406843Y-450443D01*
X7425283Y-446684D01*
X7443266Y-441045D01*
X7460589Y-433578D01*
X7477048Y-424434D01*
X7492492Y-413715D01*
X7506766Y-401421D01*
X7519771Y-387807D01*
X7531252Y-372872D01*
X7541259Y-356920D01*
X7549540Y-340004D01*
X7556093Y-322326D01*
X7560767Y-304139D01*
X7563662Y-285496D01*
X7564577Y-266700D01*
X7563662Y-247904D01*
X7560767Y-229260D01*
X7556093Y-211074D01*
X7549540Y-193395D01*
X7541259Y-176479D01*
X7531252Y-160528D01*
X7519771Y-145592D01*
X7506766Y-131978D01*
X7492492Y-119684D01*
X7477048Y-108966D01*
X7460589Y-99822D01*
X7443266Y-92354D01*
X7425283Y-86715D01*
X7406843Y-82956D01*
X7388098Y-81026D01*
X7369302Y-81026D01*
X7350556Y-82956D01*
X7332116Y-86715D01*
X7314133Y-92354D01*
X7296810Y-99822D01*
X7280351Y-108966D01*
X7264908Y-119684D01*
X7250633Y-131978D01*
X7237628Y-145592D01*
X7226147Y-160528D01*
X7216140Y-176479D01*
X7207859Y-193395D01*
X7201306Y-211074D01*
X7196632Y-229260D01*
X7193737Y-247904D01*
X7192822Y-266700D01*
X7193737Y-285496D01*
X7196632Y-304139D01*
X7201306Y-322326D01*
X7207859Y-340004D01*
X7216140Y-356920D01*
X7226147Y-372872D01*
X7237628Y-387807D01*
X7250633Y-401421D01*
X7264908Y-413715D01*
X7280351Y-424434D01*
X7296810Y-433578D01*
X7314133Y-441045D01*
X7332116Y-446684D01*
X7350556Y-450443D01*
G37*
G36*
X3302Y-452374D02*
G01*
X22098Y-452374D01*
X40843Y-450443D01*
X59283Y-446684D01*
X77266Y-441045D01*
X94589Y-433578D01*
X111048Y-424434D01*
X126492Y-413715D01*
X140766Y-401421D01*
X153771Y-387807D01*
X165252Y-372872D01*
X175260Y-356920D01*
X183540Y-340004D01*
X190093Y-322326D01*
X194767Y-304139D01*
X197662Y-285496D01*
X198577Y-266700D01*
X197662Y-247904D01*
X194767Y-229260D01*
X190093Y-211074D01*
X183540Y-193395D01*
X175260Y-176479D01*
X165252Y-160528D01*
X153771Y-145592D01*
X140766Y-131978D01*
X126492Y-119684D01*
X111048Y-108966D01*
X94589Y-99822D01*
X77266Y-92354D01*
X59283Y-86715D01*
X40843Y-82956D01*
X22098Y-81026D01*
X3302Y-81026D01*
X-15443Y-82956D01*
X-33883Y-86715D01*
X-51866Y-92354D01*
X-69189Y-99822D01*
X-85648Y-108966D01*
X-101092Y-119684D01*
X-115366Y-131978D01*
X-128371Y-145592D01*
X-139852Y-160528D01*
X-149860Y-176479D01*
X-158140Y-193395D01*
X-164693Y-211074D01*
X-169367Y-229260D01*
X-172262Y-247904D01*
X-173177Y-266700D01*
X-172262Y-285496D01*
X-169367Y-304139D01*
X-164693Y-322326D01*
X-158140Y-340004D01*
X-149860Y-356920D01*
X-139852Y-372872D01*
X-128371Y-387807D01*
X-115366Y-401421D01*
X-101092Y-413715D01*
X-85648Y-424434D01*
X-69189Y-433578D01*
X-51866Y-441045D01*
X-33883Y-446684D01*
X-15443Y-450443D01*
G37*

%LPD*%
D10*
X13754105Y-1506601D02*
G01*
X749294Y-1506601D01*
X749294Y-2006600D02*
G01*
X13754105Y-2006600D01*
D11*
X749300Y-1006602D02*
G01*
X13754100Y-1006602D01*
D12*
G01*
X1993900Y-1006602D03*
G01*
X1993900Y-1506601D03*
G01*
X1993900Y-2006600D03*
G01*
X1993900Y-2506624D03*
G01*
X1993900Y-3006623D03*
G01*
X3517900Y-1006602D03*
G01*
X3517900Y-1506601D03*
G01*
X3517900Y-2006600D03*
G01*
X3517900Y-2506624D03*
G01*
X3517900Y-3006623D03*
G01*
X5041900Y-1006602D03*
G01*
X5041900Y-1506601D03*
G01*
X5041900Y-2006600D03*
G01*
X5041900Y-2506624D03*
G01*
X5041900Y-3006623D03*
G01*
X6565900Y-1006602D03*
G01*
X6565900Y-1506601D03*
G01*
X6565900Y-2006600D03*
G01*
X6565900Y-2506624D03*
G01*
X6565900Y-3006623D03*
G01*
X8089900Y-1006602D03*
G01*
X8089900Y-1506601D03*
G01*
X8089900Y-2006600D03*
G01*
X8089900Y-2506624D03*
G01*
X8089900Y-3006623D03*
G01*
X9613900Y-1006602D03*
G01*
X9613900Y-1506601D03*
G01*
X9613900Y-2006600D03*
G01*
X9613900Y-2506624D03*
G01*
X9613900Y-3006623D03*
G01*
X11137900Y-1006602D03*
G01*
X11137900Y-1506601D03*
G01*
X11137900Y-2006600D03*
G01*
X11137900Y-2506624D03*
G01*
X11137900Y-3006623D03*
G01*
X12661900Y-1006602D03*
G01*
X12661900Y-1506601D03*
G01*
X12661900Y-2006600D03*
G01*
X12661900Y-2506624D03*
G01*
X12661900Y-3006623D03*
D13*
G01*
X749300Y-1006602D03*
D12*
G01*
X749300Y-1506601D03*
G01*
X749300Y-2006600D03*
G01*
X749300Y-2506598D03*
G01*
X749300Y-3006597D03*
D13*
G01*
X13754100Y-3006597D03*
D12*
G01*
X13754100Y-2506598D03*
G01*
X13754100Y-2006600D03*
G01*
X13754100Y-1506601D03*
G01*
X13754100Y-1006602D03*
M02*
