M48
METRIC,LZ,000.000
;FILE_FORMAT=3:3
;TYPE=PLATED
;Layer: Drill PTH
;EasyEDA v6.4.25, 2021-12-12T20:56:00+02:00
;4092842e100643a18230132d8ada3433,1f0f20c424864fadbde79754da5e519f,10
;Gerber Generator version 0.2
;Holesize 1 = 1.301 mm
T01C1.301
;Holesize 2 = 1.501 mm
T02C1.501
%
G05
G90
T01
X007493Y-010066
X007493Y-015066
X007493Y-020066
X007493Y-025066
X007493Y-030066
X137541Y-030066
X137541Y-025066
X137541Y-020066
X137541Y-015066
X137541Y-010066
T02
X019939Y-010066
X019939Y-015066
X019939Y-020066
X019939Y-025066
X019939Y-030066
X035179Y-010066
X035179Y-015066
X035179Y-020066
X035179Y-025066
X035179Y-030066
X050419Y-010066
X050419Y-015066
X050419Y-020066
X050419Y-025066
X050419Y-030066
X065659Y-010066
X065659Y-015066
X065659Y-020066
X065659Y-025066
X065659Y-030066
X080899Y-010066
X080899Y-015066
X080899Y-020066
X080899Y-025066
X080899Y-030066
X096139Y-010066
X096139Y-015066
X096139Y-020066
X096139Y-025066
X096139Y-030066
X111379Y-010066
X111379Y-015066
X111379Y-020066
X111379Y-025066
X111379Y-030066
X126619Y-010066
X126619Y-015066
X126619Y-020066
X126619Y-025066
X126619Y-030066
M30
