G04 Layer: BottomSolderMaskLayer*
G04 EasyEDA v6.4.25, 2021-12-12T20:56:00+02:00*
G04 4092842e100643a18230132d8ada3433,1f0f20c424864fadbde79754da5e519f,10*
G04 Gerber Generator version 0.2*
G04 Scale: 100 percent, Rotated: No, Reflected: No *
G04 Dimensions in millimeters *
G04 leading zeros omitted , absolute positions ,4 integer and 5 decimal *
%FSLAX45Y45*%
%MOMM*%

%ADD15C,2.4016*%
%ADD17C,2.4000*%

%LPD*%
D15*
G01*
X1993900Y-1006602D03*
G01*
X1993900Y-1506601D03*
G01*
X1993900Y-2006600D03*
G01*
X1993900Y-2506624D03*
G01*
X1993900Y-3006623D03*
G01*
X3517900Y-1006602D03*
G01*
X3517900Y-1506601D03*
G01*
X3517900Y-2006600D03*
G01*
X3517900Y-2506624D03*
G01*
X3517900Y-3006623D03*
G01*
X5041900Y-1006602D03*
G01*
X5041900Y-1506601D03*
G01*
X5041900Y-2006600D03*
G01*
X5041900Y-2506624D03*
G01*
X5041900Y-3006623D03*
G01*
X6565900Y-1006602D03*
G01*
X6565900Y-1506601D03*
G01*
X6565900Y-2006600D03*
G01*
X6565900Y-2506624D03*
G01*
X6565900Y-3006623D03*
G01*
X8089900Y-1006602D03*
G01*
X8089900Y-1506601D03*
G01*
X8089900Y-2006600D03*
G01*
X8089900Y-2506624D03*
G01*
X8089900Y-3006623D03*
G01*
X9613900Y-1006602D03*
G01*
X9613900Y-1506601D03*
G01*
X9613900Y-2006600D03*
G01*
X9613900Y-2506624D03*
G01*
X9613900Y-3006623D03*
G01*
X11137900Y-1006602D03*
G01*
X11137900Y-1506601D03*
G01*
X11137900Y-2006600D03*
G01*
X11137900Y-2506624D03*
G01*
X11137900Y-3006623D03*
G01*
X12661900Y-1006602D03*
G01*
X12661900Y-1506601D03*
G01*
X12661900Y-2006600D03*
G01*
X12661900Y-2506624D03*
G01*
X12661900Y-3006623D03*
G36*
X629412Y-1126489D02*
G01*
X629412Y-886713D01*
X869187Y-886713D01*
X869187Y-1126489D01*
G37*
D17*
G01*
X749300Y-1506601D03*
G01*
X749300Y-2006600D03*
G01*
X749300Y-2506598D03*
G01*
X749300Y-3006597D03*
G36*
X13634211Y-3126486D02*
G01*
X13634211Y-2886710D01*
X13873988Y-2886710D01*
X13873988Y-3126486D01*
G37*
G01*
X13754100Y-2506598D03*
G01*
X13754100Y-2006600D03*
G01*
X13754100Y-1506601D03*
G01*
X13754100Y-1006602D03*
M02*
